<svg xmlns="http://www.w3.org/2000/svg" width="34.475" height="25.631" viewBox="0 0 34.475 25.631">
  <g id="Group_573" data-name="Group 573" transform="translate(-379.504 -3013.331)">
    <path id="Path_175" data-name="Path 175" d="M4.988,13.728,21.649,22.7,31.968,7.114Z" transform="translate(376.138 3007.049)" fill="#161615"/>
    <path id="Rectangle_961" data-name="Rectangle 961" d="M.655,0H29.226a.656.656,0,0,1,.656.656V17.164a.655.655,0,0,1-.655.655H.655A.655.655,0,0,1,0,17.164V.655A.655.655,0,0,1,.655,0Z" transform="translate(380.108 3021.051) rotate(-13.775)" fill="none" stroke="#fff" stroke-miterlimit="10" stroke-width="1"/>
    <path id="Path_174" data-name="Path 174" d="M33.973,22.119,18.064,12.962,8.483,28.368Z" transform="translate(377.636 3009.555)" fill="none" stroke="#fff" stroke-linecap="round" stroke-linejoin="round" stroke-width="1"/>
    <path id="Path_176" data-name="Path 176" d="M4.988,13.728,21.649,22.7,31.968,7.114Z" transform="translate(376.138 3007.049)" stroke="#fff" stroke-linecap="round" stroke-linejoin="round" stroke-width="1"/>
  </g>
</svg>
