<svg xmlns="http://www.w3.org/2000/svg" viewBox="0 0 103 16"><path fill="#111111" d="M3.3 15.8H.6V2.9h2.8v12.9zM5.2 6.4h2.7v.9c.5-.6 1.5-1.1 2.6-1.1 2.2 0 3.4 1.4 3.4 3.5v6.2h-2.7v-5.6c0-1-.5-1.7-1.6-1.7-.8-.1-1.5.4-1.7 1.2v6H5.2V6.4zM15.3 12.6c.9.8 2.3 1.3 3.3 1.3.8 0 1.4-.2 1.4-.8 0-.5-.4-.7-1.1-.9l-.8-.2c-1.7-.4-2.7-1.2-2.7-2.8 0-1.8 1.6-2.9 3.8-2.9 1.2 0 2.2.3 3.1.8v2.4c-.9-.7-1.9-1.2-3-1.2-.7 0-1.3.3-1.3.8s.4.7 1 .9l1.1.3c1.8.5 2.7 1.3 2.7 2.9 0 1.9-1.7 2.9-4 2.9-1.3 0-2.6-.3-3.4-.9v-2.6h-.1zM26.8 15.8h-2.7V6.4h2.7v9.4zM27.1 3.7c0 .9-.7 1.6-1.6 1.6-.9 0-1.6-.7-1.6-1.6 0-.9.7-1.6 1.6-1.6.9.1 1.6.8 1.6 1.6zM35 15c-.4.5-1.4 1-2.4 1-2.8 0-4.4-2.2-4.4-4.9s1.6-4.9 4.4-4.9c1 0 2 .5 2.4 1V2.1h2.7v13.7H35V15zm0-5.5c-.3-.6-1-1.1-1.8-1.1-1.4 0-2.3 1.1-2.3 2.7 0 1.5.9 2.6 2.3 2.6.8 0 1.5-.4 1.8-1.1V9.5zM41.6 11.7c.2 1.5 1.4 2.2 2.8 2.2 1.1 0 1.8-.2 2.8-.8v2.1c-.8.6-1.9.8-3.2.8-3 0-5-1.9-5-4.8s1.9-5 4.5-5c2.8 0 4.2 1.9 4.2 4.7v.8h-6.1zm0-1.7h3.6c-.1-1-.6-1.7-1.7-1.7-.8-.1-1.6.5-1.9 1.7zM54.8 8.9c-.4-.2-.8-.3-1.3-.3-.9 0-1.6.5-1.8 1.3v5.8H49V6.4h2.7v.9c.4-.7 1.2-1.1 2.2-1.1.5 0 .9.1 1 .2v2.5zM57.9 14.7c0 .6-.5 1.2-1.2 1.2s-1.2-.5-1.2-1.2c0-.6.5-1.2 1.2-1.2.6 0 1.2.6 1.2 1.2zM63.4 6.2c.9 0 1.9.3 2.5.8v1.1c-.8-.7-1.6-.9-2.5-.9-1.9 0-3.4 1.5-3.4 3.9 0 2.5 1.5 3.9 3.4 3.9.9 0 1.7-.3 2.5-.9v1.1c-.7.6-1.6.8-2.5.8-2.6 0-4.5-1.9-4.5-4.9.1-2.9 2-4.9 4.5-4.9zM71.3 16c-2.5 0-4.2-2-4.2-4.9 0-2.9 1.7-4.9 4.2-4.9s4.2 2 4.2 4.9c0 2.9-1.7 4.9-4.2 4.9zm0-8.8c-1.9 0-3.1 1.6-3.1 3.9s1.2 3.9 3.1 3.9c1.9 0 3.2-1.6 3.2-3.9s-1.3-3.9-3.2-3.9zM86.9 6.2c1.9 0 2.9 1.3 2.9 3.2v6.3h-1.1V9.6c0-1.4-.6-2.4-2-2.4-1.2 0-2.2.8-2.5 2v6.6H83V9.6c0-1.4-.6-2.4-2-2.4-1.2 0-2.2.8-2.5 2v6.6h-1.1V6.4h1.1v1.4c.5-.9 1.5-1.6 2.8-1.6 1.4 0 2.3.7 2.7 1.8.4-.9 1.5-1.8 2.9-1.8zM96 0h-4.3v.7h1.7v4.2h.8V.7H96V0zm6.4 0h-1.1l-1.6 4L98 0h-1.1v4.9h.8V1l1.7 3.9h.7l1.6-4v4h.8V0z"/></svg>