<svg width="36" height="36" viewBox="0 0 36 36" fill="none" xmlns="http://www.w3.org/2000/svg">
<mask id="mask0_521_1196" style="mask-type:alpha" maskUnits="userSpaceOnUse" x="0" y="0" width="36" height="36">
<path fill-rule="evenodd" clip-rule="evenodd" d="M0 0H36V36H0V0Z" fill="white"/>
</mask>
<g mask="url(#mask0_521_1196)">
<path fill-rule="evenodd" clip-rule="evenodd" d="M20.5666 28.0494C20.8531 27.7623 20.9967 27.409 20.9973 26.9894L20.9967 20.9968H26.9898C27.4094 20.9968 27.7627 20.8533 28.0498 20.5661C28.3475 20.2685 28.4963 19.9093 28.4963 19.4904V16.5095C28.4963 16.0906 28.3475 15.7313 28.0498 15.4337C27.7627 15.1466 27.4094 15.0036 26.9898 15.0036H20.9967V9.01045C20.9967 8.59089 20.8531 8.23753 20.5666 7.95105C20.2683 7.65277 19.9091 7.50395 19.4902 7.50395H16.5106C16.0904 7.50395 15.7318 7.65277 15.4342 7.9504C15.1471 8.23753 15.0035 8.59089 15.0035 9.01045V15.0036H9.01102C8.59146 15.0036 8.23811 15.1466 7.95098 15.4337C7.65335 15.7313 7.50389 16.0906 7.50454 16.5095L7.50389 19.4897C7.50389 19.9093 7.6527 20.2679 7.95098 20.5661C8.23746 20.8526 8.59081 20.9968 9.01037 20.9962L15.0042 20.9968L15.0035 26.9894C15.0035 27.409 15.1471 27.7623 15.4342 28.0494C15.7318 28.3471 16.0904 28.4965 16.5106 28.4959L19.4902 28.4965C19.9097 28.4965 20.2683 28.3477 20.5666 28.0494ZM30.7147 30.715C28.4078 33.0219 25.7121 34.5802 22.6277 35.3918C19.5426 36.2027 16.4575 36.2027 13.3731 35.3918C10.2887 34.5802 7.59239 33.0213 5.28547 30.7143C2.97854 28.4074 1.41962 25.7117 0.608689 22.6272C-0.202896 19.5421 -0.202896 16.4577 0.608689 13.3726C1.41962 10.2875 2.97854 7.59246 5.28547 5.28551C7.59239 2.97857 10.2881 1.41898 13.3731 0.608694C16.4575 -0.202898 19.5426 -0.202898 22.6277 0.608694C25.7121 1.41898 28.4078 2.97857 30.7147 5.28551C33.0216 7.5918 34.5805 10.2881 35.3915 13.3726C36.2031 16.457 36.2024 19.5421 35.3921 22.6272C34.5805 25.7123 33.0216 28.408 30.7147 30.715Z" fill="#78766F"/>
</g>
</svg>
