<svg width="16" height="13" viewBox="0 0 16 13" fill="none" xmlns="http://www.w3.org/2000/svg">
<g clip-path="url(#clip0)">
<path d="M14.36 3.24L14.37 3.667C14.37 8.004 11.07 13.001 5.036 13.001C3.25041 13.0049 1.50167 12.4931 0 11.527C0.262976 11.5561 0.527427 11.5698 0.792 11.568C2.26864 11.5717 3.70346 11.0778 4.865 10.166C4.1805 10.1535 3.51698 9.9276 2.96712 9.51974C2.41726 9.11187 2.00852 8.54244 1.798 7.891C2.001 7.921 2.204 7.941 2.418 7.941C2.70923 7.94003 2.99917 7.9024 3.281 7.829C2.53809 7.6788 1.87012 7.27594 1.39066 6.68892C0.911197 6.1019 0.649833 5.36694 0.651 4.609V4.569C1.1056 4.8227 1.61377 4.96525 2.134 4.985C1.68395 4.68578 1.31482 4.28 1.05941 3.80372C0.803997 3.32744 0.670231 2.79544 0.67 2.255C0.67 1.645 0.832 1.087 1.117 0.6C2.732 2.6 5.16 3.9 7.88 4.032C7.82816 3.78465 7.80135 3.53272 7.8 3.28C7.8 2.41009 8.14557 1.57581 8.76069 0.96069C9.37581 0.34557 10.2101 0 11.08 0C12.025 0 12.878 0.396 13.477 1.036C14.2116 0.894548 14.9161 0.626564 15.559 0.244C15.3146 1.00219 14.8018 1.6451 14.117 2.052C14.777 1.982 15.417 1.798 16.007 1.544C15.558 2.19785 15.0018 2.77123 14.362 3.24H14.36Z" fill="#595E67"/>
</g>
<defs>
<clipPath id="clip0">
<rect width="16" height="13" fill="white"/>
</clipPath>
</defs>
</svg>
