<svg width="761" height="80" viewBox="0 0 761 80" fill="none" xmlns="http://www.w3.org/2000/svg"><mask id="mask0_616_1748" style="mask-type:alpha" maskUnits="userSpaceOnUse" x="0" y="0" width="70" height="80"><path fill-rule="evenodd" clip-rule="evenodd" d="M35.75 79.974C46.82 78.437 70 53.92 70 35.133c0-3.284-.453-6.463-1.3-9.478L52.339 41.942c.107.27.166.564.166.872a2.38 2.38 0 0 1-2.386 2.375 2.39 2.39 0 0 1-.877-.165l-12.18 12.122a2.374 2.374 0 0 1-1.312 2.463v20.365zm-2 .015C22.502 78.612 0 53.988 0 35.133c0-3.135.397-6.174 1.145-9.067L24.588 49.4a2.38 2.38 0 0 0 2.27 3.107c.257 0 .504-.04.736-.115l4.746 4.724a2.37 2.37 0 0 0 1.41 2.54V79.99zM1.785 23.882l24.166 24.052a2.39 2.39 0 0 1 .907-.177 2.38 2.38 0 0 1 2.386 2.375c0 .32-.063.624-.178.903l4.417 4.397c.086-.05.175-.096.267-.136V32.081a2.376 2.376 0 0 1-1.413-2.843l-7.874-7.836a2.395 2.395 0 0 1-.681.098 2.38 2.38 0 0 1-2.288-3.053l-9.789-9.744a34.923 34.923 0 0 0-9.92 15.179zM13.242 7.41l9.583 9.538c.293-.128.616-.199.957-.199a2.38 2.38 0 0 1 2.386 2.375c0 .339-.071.661-.2.953l7.674 7.637c.035-.016.072-.031.108-.046V.013c-7.8.205-14.874 2.935-20.508 7.398zM34.607 0h.19a36.273 36.273 0 0 0-.19 0zm1.143.014v27.76c.034.017.067.036.1.055L56.376 7.4A35.235 35.235 0 0 0 35.75.016zm22.178 8.662L36.995 29.513a2.373 2.373 0 0 1-1.245 2.463v23.367c.064.031.126.065.186.102l11.922-11.866a2.38 2.38 0 0 1 2.26-3.14c.268 0 .527.044.768.126l17.136-17.056A35.176 35.176 0 0 0 57.928 8.677z" fill="url(#paint0_linear_616_1748)"/></mask><g mask="url(#mask0_616_1748)"><path d="M71 84V-7L24 84h47z" fill="url(#paint1_linear_616_1748)" stroke="#75C6C9" stroke-width="2.065"/><path d="M-6 58.5V-7h64L-6 58.5z" fill="#80CCCE"/><path d="M65.5 8C55.5 26 41 51.5 38 85.5L-5 55C13.5 32 32 13.5 51-1l14.5 9z" fill="#000"/><path d="M65.5 8C55.5 26 41 51.5 38 85.5L-5 55C13.5 32 32 13.5 51-1l14.5 9z" fill="#42AAB3"/><path d="M50-2C31 12.5 12.5 31-6 54l29.5 30.5C34 55 48 24.5 62 7.5L50-2z" fill="#59C2C9"/></g><path fill-rule="evenodd" clip-rule="evenodd" d="M100.762 16.116v-3.174h39.793v3.174h-39.793zm18.271 10.065v40.877h3.251V26.181h-3.251z" fill="#172235"/><path d="M100.762 12.942v-.465h-.465v.465h.465zm0 3.174h-.465v.465h.465v-.465zm39.793-3.174h.465v-.465h-.465v.465zm0 3.174v.465h.465v-.465h-.465zm-21.522 10.065v-.465h-.465v.465h.465zm0 40.877h-.465v.465h.465v-.465zm3.251 0v.465h.465v-.465h-.465zm0-40.877h.465v-.465h-.465v.465zm-21.987-13.239v3.174h.929v-3.174h-.929zm40.258-.465h-39.793v.93h39.793v-.93zm.465 3.64v-3.175h-.929v3.174h.929zm-18.736.464h18.271v-.93h-18.271v.93zm0-.93h-3.251v.93h3.251v-.93zm-21.522.93h18.271v-.93h-18.271v.93zm17.806 9.6v40.877h.929V26.181h-.929zm.465 41.342h3.251v-.93h-3.251v.93zm3.716-.465V26.181h-.929v40.877h.929zm-3.716-40.413h3.251v-.929h-3.251v.93z" fill="#172235"/><path fill-rule="evenodd" clip-rule="evenodd" d="M156.956 67.058V12.942h3.252v54.116h-3.252zm13.316-25.548h26.555v25.548h3.252V12.942h-3.252v25.394h-26.555v3.174z" fill="#172235"/><path d="M156.956 12.942v-.465h-.464v.465h.464zm0 54.116h-.464v.465h.464v-.465zm3.252-54.116h.464v-.465h-.464v.465zm0 25.394h-.465v.464h.465v-.464zm0 0h.464v-.465h-.464v.465zm0 3.174v.464h.464v-.464h-.464zm0 0v-.465h-.465v.465h.465zm0 25.548v.465h.464v-.465h-.464zm10.064-25.548h-.464v.464h.464v-.464zm26.555 0h.465v-.465h-.465v.465zm0 25.548h-.464v.465h.464v-.465zm3.252 0v.465h.464v-.465h-.464zm0-54.116h.464v-.465h-.464v.465zm-3.252 0v-.465h-.464v.465h.464zm0 25.394v.464h.465v-.464h-.465zm-26.555 0v-.465h-.464v.465h.464zm-13.78-25.394v54.116h.929V12.942h-.929zm3.716-.465h-3.252v.93h3.252v-.93zm.464 25.859V12.942h-.929v25.394h.929zm-.464-.465v.929-.929zm-.465.465v3.174h.929v-3.174h-.929zm.465 3.638v-.929.93zm.464 25.084V41.51h-.929v25.548h.929zm-3.716.465h3.252v-.93h-3.252v.93zm13.316-25.549h26.555v-.929h-26.555v.93zm26.091-.464v25.548h.929V41.51h-.929zm.464 26.013h3.252v-.93h-3.252v.93zm3.716-.465V12.942h-.929v54.116h.929zm-.464-54.58h-3.252v.928h3.252v-.929zm-3.716.464v25.394h.929V12.942h-.929zm.464 24.929h-26.555v.929h26.555v-.929zm-26.09 3.639v-3.174h-.929v3.174h.929z" fill="#172235"/><path fill-rule="evenodd" clip-rule="evenodd" d="M244.273 49.508c10.414 0 18.885-8.202 18.885-18.284 0-10.081-8.471-18.282-18.885-18.282h-23.419v54.116h3.144V16.002h20.275c8.679 0 15.741 6.83 15.741 15.222 0 8.394-7.062 15.222-15.741 15.222h-11.277l26.381 20.587.032.025h5.221l-22.836-17.55h2.479zm35.051-36.566v54.116h3.251V12.942h-3.251zm43.494 48.306l-22.953-48.119-.09-.187h-3.404l25.744 53.929.089.187h1.228l25.61-53.646.223-.47h-3.404l-23.043 48.306z" fill="#172235" stroke="#172235" stroke-width=".929"/><path fill-rule="evenodd" clip-rule="evenodd" d="M362.286 67.058V12.942h34.916v3.174h-31.664v47.768h32.671v3.174h-35.923zm13.316-26.09h21.523v-3.252h-21.523v3.252z" fill="#172235"/><path d="M362.286 12.942v-.465h-.464v.465h.464zm0 54.116h-.464v.465h.464v-.465zm34.916-54.116h.465v-.465h-.465v.465zm0 3.174v.465h.465v-.465h-.465zm-31.664 0v-.464h-.465v.464h.465zm0 6.426v.464h.464v-.464h-.464zm0 0v-.465h-.465v.465h.465zm0 30.523h-.465v.464h.465v-.464zm0 0h.464V52.6h-.464v.465zm0 10.819h-.465v.464h.465v-.464zm32.671 0h.464v-.465h-.464v.465zm0 3.174v.465h.464v-.465h-.464zm-22.607-26.09h-.464v.464h.464v-.464zm21.523 0v.464h.464v-.464h-.464zm0-3.252h.464v-.464h-.464v.464zm-21.523 0v-.464h-.464v.464h.464zm-13.78-24.774v54.116h.929V12.942h-.929zm35.38-.465h-34.916v.93h34.916v-.93zm.465 3.64v-3.175h-.929v3.174h.929zm-32.129.464h31.664v-.93h-31.664v.93zm.464 5.961v-6.426h-.929v6.426h.929zm-.464-.465v.93-.93zm-.465.465v30.523h.929V22.542h-.929zm.465 30.987V52.6v.93zm.464 10.355v-10.82h-.929v10.82h.929zm32.207-.465h-32.671v.93h32.671v-.93zm.464 3.64v-3.175h-.929v3.174h.929zm-36.387.464h35.923v-.93h-35.923v.93zm13.316-26.09h21.523v-.93h-21.523v.93zm21.987-.465v-3.252h-.929v3.252h.929zm-.464-3.716h-21.523v.929h21.523v-.93zm-21.058 3.716v-3.252h-.929v3.252h.929z" fill="#172235"/><path fill-rule="evenodd" clip-rule="evenodd" d="M490.516 40.73h-24.18v-2.946l.215-.074h27.038V40c0 15.026-12.225 27.252-27.253 27.252-15.025 0-27.25-12.226-27.25-27.253 0-15.026 12.225-27.25 27.25-27.25 7.571 0 14.547 2.946 19.641 8.298l.039.04-2.285 1.931c-4.503-4.636-10.71-7.25-17.395-7.25-13.563 0-24.188 10.643-24.188 24.231 0 13.59 10.625 24.233 24.188 24.233 13.212 0 23.768-10.295 24.18-23.503zm-24.175-3.02h-.005v.005l.005-.005z" fill="#172235"/><path d="M466.336 40.73h-.464v.464h.464v-.465zm24.18 0l.464.014.015-.48h-.479v.465zm-24.18-2.946l-.151-.439-.313.108v.331h.464zm.215-.074v-.464h-.078l-.074.025.152.44zm27.038 0h.465v-.464h-.465v.464zm-7.612-16.663l-.336.32.001.002.335-.322zm.039.04l.3.355.379-.32-.344-.356-.335.322zm-2.285 1.931l-.333.324.302.31.331-.279-.3-.355zm-17.39 14.692l.3.355.97-.82h-1.27v.465zm-.005 0v-.464h-.464v.464h.464zm0 .005h-.464v1l.764-.645-.3-.355zm0 3.479h24.18v-.93h-24.18v.93zm-.464-3.41v2.945h.929v-2.945h-.929zm.615.44l.215-.074-.303-.879-.214.074.302.879zm27.102-.978h-27.038v.929h27.038v-.93zm.465 2.753V37.71h-.929V40h.929zm-27.718 27.717c15.284 0 27.718-12.433 27.718-27.717h-.929c0 14.77-12.018 26.788-26.789 26.788v.93zM438.621 40c0 15.284 12.433 27.717 27.715 27.717v-.929c-14.769 0-26.786-12.017-26.786-26.788h-.929zm27.715-27.715c-15.282 0-27.715 12.432-27.715 27.715h.929c0-14.77 12.017-26.786 26.786-26.786v-.93zm19.978 8.442c-5.185-5.446-12.283-8.442-19.978-8.442v.929c7.448 0 14.301 2.897 19.305 8.154l.673-.64zm.037.04l-.039-.041-.67.644.04.04.669-.643zm-.634-.033l-2.285 1.93.599.71 2.285-1.93-.599-.71zm-19.381-4.501c6.562 0 12.648 2.566 17.062 7.11l.666-.647c-4.592-4.729-10.92-7.392-17.728-7.392v.929zM442.613 40c0-13.332 10.417-23.767 23.723-23.767v-.93c-13.821 0-24.652 10.854-24.652 24.697h.929zm23.723 23.768c-13.306 0-23.723-10.434-23.723-23.768h-.929c0 13.845 10.831 24.697 24.652 24.697v-.929zm23.716-23.052c-.404 12.958-10.757 23.052-23.716 23.052v.93c13.464 0 24.225-10.496 24.644-23.953l-.928-.03zm-23.711-3.47h-.005v.93h.005v-.93zm-.469.465v.005h.929v-.005h-.929zm.17-.355l-.006.005.6.71.005-.005-.599-.71z" fill="#172235"/><path fill-rule="evenodd" clip-rule="evenodd" d="M508.31 12.942v54.116h27.329v-3.174h-24.078V12.942h-3.251z" fill="#172235" stroke="#172235" stroke-width=".929"/><path fill-rule="evenodd" clip-rule="evenodd" d="M568.961 12.865c15.484 0 28.026 12.077 28.026 27.096 0 15.02-12.542 27.174-28.026 27.174s-28.026-12.154-28.026-27.174c0-15.019 12.542-27.096 28.026-27.096zm0 3.174c-13.549 0-24.697 10.684-24.697 23.922 0 13.239 11.148 24 24.697 24 13.548 0 24.696-10.761 24.696-24 0-13.238-11.148-23.922-24.696-23.922z" fill="#172235"/><path d="M568.961 13.33c15.243 0 27.561 11.884 27.561 26.631h.929c0-15.29-12.765-27.561-28.49-27.561v.93zm27.561 26.631c0 14.75-12.32 26.71-27.561 26.71v.929c15.727 0 28.49-12.35 28.49-27.639h-.929zm-27.561 26.71c-15.241 0-27.561-11.96-27.561-26.71h-.929c0 15.29 12.763 27.639 28.49 27.639v-.929zM541.4 39.961c0-14.747 12.318-26.632 27.561-26.632V12.4c-15.725 0-28.49 12.27-28.49 27.561h.929zm27.561-24.387c-13.79 0-25.162 10.877-25.162 24.387h.929c0-12.967 10.925-23.458 24.233-23.458v-.929zm-25.162 24.387c0 13.509 11.37 24.465 25.162 24.465v-.93c-13.306 0-24.233-10.566-24.233-23.535h-.929zm25.162 24.465c13.791 0 25.161-10.956 25.161-24.465h-.929c0 12.97-10.927 23.536-24.232 23.536v.929zm25.161-24.465c0-13.51-11.372-24.387-25.161-24.387v.93c13.307 0 24.232 10.49 24.232 23.457h.929z" fill="#172235"/><path fill-rule="evenodd" clip-rule="evenodd" d="M649.018 26.335c0-8.438-6.271-13.393-16.878-13.393h-22.141v54.116h22.296c12.233 0 19.433-5.342 19.433-14.555 0-7.587-4.8-12.697-13.162-13.703 6.658-1.239 10.452-5.806 10.452-12.464zm-3.252.388c0 6.89-5.032 10.76-13.703 10.76h-8.748v3.175h8.748c10.452 0 16.413 4.18 16.413 11.458 0 7.51-5.961 11.768-16.413 11.69H613.25v-47.69h18.813c8.671 0 13.703 3.871 13.703 10.607z" fill="#172235"/><path d="M609.999 12.942v-.465h-.465v.465h.465zm0 54.116h-.465v.465h.465v-.465zM638.566 38.8l-.085-.457.03.918.055-.461zm-15.251-1.316v-.465h-.465v.465h.465zm0 3.174h-.465v.465h.465v-.465zm8.748 23.148l.004-.464h-.004v.465zm-18.813 0h-.464v.465h.464v-.465zm0-47.69v-.464h-.464v.464h.464zm18.89-2.71c5.238 0 9.343 1.225 12.128 3.432 2.771 2.196 4.285 5.404 4.285 9.497h.929c0-4.345-1.621-7.834-4.637-10.225-3.002-2.38-7.336-3.633-12.705-3.633v.93zm-22.141 0h22.141v-.929h-22.141v.93zm.464 53.652V12.942h-.929v54.116h.929zm21.832-.464h-22.296v.929h22.296v-.93zm18.968-14.09c0 4.47-1.739 7.966-4.942 10.36-3.222 2.406-7.969 3.73-14.026 3.73v.929c6.176 0 11.145-1.348 14.582-3.915 3.454-2.581 5.315-6.363 5.315-11.105h-.929zM638.511 39.26c4.099.494 7.281 1.987 9.435 4.244 2.152 2.253 3.317 5.307 3.317 8.998h.929c0-3.895-1.235-7.19-3.574-9.64-2.335-2.446-5.734-4.011-9.996-4.524l-.111.922zm10.042-12.926c0 3.24-.921 5.935-2.62 7.967-1.7 2.032-4.209 3.438-7.452 4.041l.17.914c3.416-.636 6.133-2.133 7.994-4.359 1.862-2.226 2.837-5.143 2.837-8.563h-.929zm-16.49 11.613c4.397 0 7.937-.98 10.389-2.895 2.469-1.928 3.779-4.76 3.779-8.33h-.929c0 3.32-1.206 5.868-3.421 7.598-2.232 1.743-5.543 2.698-9.818 2.698v.93zm-8.748 0h8.748v-.929h-8.748v.93zm.464 2.71v-3.174h-.929v3.174h.929zm-.464.465h8.748v-.93h-8.748v.93zm8.748 0c5.174 0 9.17 1.036 11.86 2.916 2.668 1.864 4.089 4.584 4.089 8.077h.929c0-3.784-1.56-6.794-4.486-8.839-2.904-2.03-7.114-3.083-12.392-3.083v.929zm15.949 10.993c0 3.615-1.426 6.412-4.093 8.312-2.687 1.916-6.68 2.952-11.852 2.914l-.007.929c5.28.04 9.493-1.015 12.399-3.086 2.927-2.087 4.482-5.174 4.482-9.069h-.929zm-15.949 11.226H613.25v.929h18.813v-.929zm-18.348.465v-21.6h-.929v21.6h.929zm-.929-23.149v1.548h.929v-1.548h-.929zm0-3.174v3.174h.929v-3.174h-.929zm0-1.626v1.626h.929v-1.626h-.929zm0-19.742v19.742h.929V16.116h-.929zm19.277-.464H613.25v.929h18.813v-.93zm14.168 11.07c0-3.495-1.313-6.29-3.78-8.196-2.452-1.894-5.991-2.874-10.388-2.874v.929c4.275 0 7.587.955 9.819 2.68 2.217 1.713 3.42 4.222 3.42 7.462h.929z" fill="#172235"/><path fill-rule="evenodd" clip-rule="evenodd" d="M709.922 67.058l-7.045-15.406h-21.683l1.664-3.252h18.548l-14.477-31.742-6.449 14.293-.002-.001-.533 1.186-7.339 16.264h.032l-6.867 15.283-1.526 3.375h-3.561l24.542-54.116h3.483l24.775 54.116h-3.562z" fill="#172235"/><path d="M702.877 51.652l.423-.194-.124-.27h-.299v.464zm7.045 15.406l-.422.193.124.272h.298v-.465zm-28.728-15.406l-.413-.212-.346.676h.759v-.464zm1.664-3.252v-.465h-.284l-.129.253.413.212zm18.548 0v.465h.722l-.299-.658-.423.193zm-14.477-31.742l.422-.193-.425-.931-.421.933.424.191zm-6.449 14.293l-.192.423.424.191.191-.423-.423-.191zm-.002-.001l.191-.424-.424-.191-.191.424.424.19zm-.533 1.186l.423.19h.001l-.424-.19zM672.606 48.4l-.423-.191-.296.655h.719V48.4zm.032 0l.423.19.295-.655h-.718v.465zm-6.867 15.283l.423.192.001-.001-.424-.19zm-1.526 3.375v.465h.3l.123-.273-.423-.192zm-3.561 0l-.423-.192-.298.657h.721v-.465zm24.542-54.116v-.465h-.3l-.124.273.424.192zm3.483 0l.423-.193-.124-.272h-.299v.465zm24.775 54.116v.465h.723l-.301-.658-.422.193zm-11.029-15.213L709.5 67.25l.845-.386-7.045-15.406-.845.386zm-21.261.271h21.683v-.929h-21.683v.93zm.414-.253l1.664-3.251-.827-.424-1.664 3.252.827.423zm19.798-3.928h-18.548v.93h18.548v-.93zm-14.9-31.084l14.477 31.742.846-.386-14.478-31.742-.845.386zm-5.603 14.29l6.449-14.292-.847-.382-6.449 14.293.847.382zm-.232-.614h-.002l-.383.846h.002l.383-.846zm-.617.232l-.533 1.186.848.38.532-1.185-.847-.38zm-7.025 17.832l7.339-16.264-.847-.382-7.338 16.264.846.382zm-.391-.656h-.032v.93h.032v-.93zm-.424.275l-6.867 15.283.848.38 6.866-15.283-.847-.38zm-7.546 19.04l1.526-3.375-.846-.383-1.526 3.375.846.382zm-3.984.273h3.561v-.93h-3.561v.93zm24.118-54.773l-24.541 54.116.846.384 24.542-54.116-.847-.384zm3.907-.273h-3.483v.93h3.483v-.93zm25.197 54.388l-24.774-54.116-.845.386 24.774 54.116.845-.386zm-3.984.658h3.562v-.93h-3.562v.93z" fill="#172235"/><path fill-rule="evenodd" clip-rule="evenodd" d="M726.444 12.942v54.116h27.329v-3.174h-24.077V12.942h-3.252z" fill="#172235" stroke="#172235" stroke-width=".929"/><defs><linearGradient id="paint0_linear_616_1748" x1=".033" y1="40.012" x2="70.027" y2="40.012" gradientUnits="userSpaceOnUse"><stop stop-color="#4EB4BB"/><stop offset=".14" stop-color="#57B8BE"/><stop offset=".696" stop-color="#78C7CA"/><stop offset="1" stop-color="#85CDCF"/></linearGradient><linearGradient id="paint1_linear_616_1748" x1="24.022" y1="38.514" x2="71.018" y2="38.514" gradientUnits="userSpaceOnUse"><stop stop-color="#4EB4BB"/><stop offset=".14" stop-color="#57B8BE"/><stop offset=".696" stop-color="#78C7CA"/><stop offset="1" stop-color="#85CDCF"/></linearGradient></defs></svg>