<svg width="15" height="15" viewBox="0 0 15 15" fill="none" xmlns="http://www.w3.org/2000/svg">
<g clip-path="url(#clip0)">
<path d="M7.5 0C5.51088 0 3.60322 0.790176 2.1967 2.1967C0.790176 3.60322 0 5.51088 0 7.5C0 9.48912 0.790176 11.3968 2.1967 12.8033C3.60322 14.2098 5.51088 15 7.5 15C9.48912 15 11.3968 14.2098 12.8033 12.8033C14.2098 11.3968 15 9.48912 15 7.5C15 5.51088 14.2098 3.60322 12.8033 2.1967C11.3968 0.790176 9.48912 0 7.5 0V0ZM10.94 10.817C10.9087 10.8702 10.867 10.9165 10.8174 10.9533C10.7678 10.99 10.7114 11.0164 10.6514 11.0309C10.5914 11.0453 10.5291 11.0476 10.4682 11.0375C10.4073 11.0273 10.3491 11.0051 10.297 10.972C8.537 9.896 6.319 9.652 3.709 10.249C3.58811 10.276 3.46146 10.2541 3.3566 10.1882C3.25173 10.1223 3.17713 10.0176 3.149 9.897C3.13525 9.83711 3.13345 9.7751 3.1437 9.71451C3.15396 9.65393 3.17607 9.59596 3.20877 9.54394C3.24147 9.49192 3.28412 9.44686 3.33426 9.41135C3.38441 9.37584 3.44107 9.35057 3.501 9.337C6.358 8.684 8.809 8.965 10.786 10.174C11.006 10.309 11.086 10.597 10.941 10.817H10.94ZM11.858 8.775C11.7769 8.90714 11.6467 9.00169 11.4959 9.03788C11.3452 9.07407 11.1862 9.04893 11.054 8.968C9.038 7.728 5.964 7.37 3.58 8.094C3.27 8.187 2.944 8.014 2.85 7.694C2.756 7.374 2.93 7.059 3.25 6.964C5.974 6.138 9.35 6.538 11.675 7.961C11.95 8.131 12.037 8.491 11.868 8.765L11.858 8.775ZM11.938 6.648C9.52 5.212 5.53 5.08 3.223 5.78C3.04491 5.83397 2.85267 5.81499 2.68857 5.72722C2.52448 5.63945 2.40197 5.49009 2.348 5.312C2.29403 5.13391 2.31301 4.94167 2.40078 4.77757C2.48855 4.61348 2.63791 4.49097 2.816 4.437C5.466 3.633 9.869 3.787 12.653 5.44C12.7323 5.48701 12.8015 5.54918 12.8567 5.62294C12.9119 5.6967 12.9521 5.78062 12.9749 5.86991C12.9977 5.95919 13.0027 6.05209 12.9896 6.1433C12.9765 6.23451 12.9455 6.32225 12.8985 6.4015C12.8515 6.48075 12.7893 6.54997 12.7156 6.6052C12.6418 6.66043 12.5579 6.70059 12.4686 6.72338C12.3793 6.74618 12.2864 6.75117 12.1952 6.73806C12.104 6.72496 12.0163 6.69401 11.937 6.647L11.938 6.648Z" fill="#595E67"/>
</g>
<defs>
<clipPath id="clip0">
<rect width="15" height="15" fill="white"/>
</clipPath>
</defs>
</svg>
