<svg width="14" height="14" viewBox="0 0 14 14" fill="none" xmlns="http://www.w3.org/2000/svg">
<g clip-path="url(#clip0)">
<path d="M7.00299 3.40999C8.98999 3.40999 10.593 5.01299 10.593 6.99999C10.593 8.98699 8.99999 10.59 7.00299 10.59C5.00599 10.59 3.41399 8.98699 3.41399 6.99999C3.41399 5.01299 5.01699 3.40999 7.00399 3.40999H7.00299ZM7.00299 9.33299C7.62134 9.33141 8.21394 9.08513 8.65127 8.64798C9.08861 8.21083 9.33514 7.61834 9.33699 6.99999C9.33699 5.71299 8.28999 4.66599 7.00299 4.66599C5.71599 4.66599 4.66999 5.71299 4.66999 6.99999C4.67157 7.61852 4.91798 8.21126 5.35535 8.64863C5.79272 9.08599 6.38546 9.3324 7.00399 9.33399L7.00299 9.33299ZM11.576 3.26299C11.5799 3.37527 11.5611 3.48719 11.5208 3.59207C11.4805 3.69695 11.4195 3.79264 11.3415 3.87345C11.2634 3.95425 11.1699 4.01851 11.0665 4.06241C10.963 4.1063 10.8518 4.12891 10.7395 4.12891C10.6271 4.12891 10.5159 4.1063 10.4125 4.06241C10.3091 4.01851 10.2156 3.95425 10.1375 3.87345C10.0594 3.79264 9.99845 3.69695 9.95816 3.59207C9.91787 3.48719 9.89911 3.37527 9.90299 3.26299C9.91049 3.04614 10.0019 2.84068 10.158 2.68993C10.314 2.53917 10.5225 2.45492 10.7395 2.45492C10.9565 2.45492 11.165 2.53917 11.321 2.68993C11.4771 2.84068 11.5685 3.04614 11.576 3.26299V3.26299ZM13.953 4.11299C14.019 5.26899 14.019 8.72999 13.953 9.88599C13.897 11.008 13.641 12.001 12.823 12.819C12.005 13.637 11.01 13.898 9.89999 13.95C8.74399 14.016 5.27999 14.016 4.12399 13.95C3.00399 13.894 2.01199 13.638 1.19099 12.82C0.369988 12.002 0.101988 11.008 0.0499883 9.88699C-0.0160117 8.72999 -0.0160117 5.26599 0.0499883 4.09999C0.104988 2.98999 0.357988 1.99499 1.17999 1.17699C2.00199 0.358988 2.99499 0.101988 4.11299 0.0499883C5.26999 -0.0160117 8.73399 -0.0160117 9.89999 0.0499883C11.022 0.105988 12.015 0.361988 12.833 1.17999C13.651 1.99799 13.911 2.99199 13.963 4.11299H13.953ZM12.46 11.126C12.826 10.208 12.74 8.01799 12.74 6.99899C12.74 5.97999 12.824 3.79399 12.46 2.87199C12.3413 2.57069 12.1619 2.29703 11.9329 2.06805C11.7039 1.83906 11.4303 1.65966 11.129 1.54099C10.211 1.17899 8.02099 1.26099 7.00199 1.26099C5.98299 1.26099 3.79699 1.17699 2.87499 1.54099C2.57369 1.65966 2.30003 1.83906 2.07105 2.06805C1.84206 2.29703 1.66266 2.57069 1.54399 2.87199C1.18199 3.78999 1.26399 5.97999 1.26399 6.99899C1.26399 8.01799 1.17999 10.204 1.54399 11.126C1.66266 11.4273 1.84206 11.7009 2.07105 11.9299C2.30003 12.1589 2.57369 12.3383 2.87499 12.457C3.79299 12.819 5.98299 12.737 7.00199 12.737C8.02099 12.737 10.207 12.821 11.129 12.457C11.4303 12.3383 11.7039 12.1589 11.9329 11.9299C12.1619 11.7009 12.3413 11.4273 12.46 11.126V11.126Z" fill="#595E67"/>
</g>
<defs>
<clipPath id="clip0">
<rect width="14" height="14" fill="white"/>
</clipPath>
</defs>
</svg>
