<svg width="17" height="18" viewBox="0 0 17 18" fill="none" xmlns="http://www.w3.org/2000/svg">
<path fill-rule="evenodd" clip-rule="evenodd" d="M10.2921 7.84601C10.281 8.31382 10.0874 8.75875 9.75264 9.0857C9.41787 9.41265 8.96849 9.59569 8.50056 9.59569C8.03262 9.59569 7.58324 9.41265 7.24848 9.0857C6.91371 8.75875 6.72011 8.31382 6.70906 7.84601C6.72011 7.37821 6.91371 6.93328 7.24848 6.60633C7.58324 6.27938 8.03262 6.09634 8.50056 6.09634C8.96849 6.09634 9.41787 6.27938 9.75264 6.60633C10.0874 6.93328 10.281 7.37821 10.2921 7.84601ZM8.50006 17.555C9.33306 17.555 9.73806 17.079 9.88006 16.435C10.0221 15.791 10.2851 13.911 10.4501 12.055C10.6151 10.199 8.50006 10.293 8.50006 10.293C8.50006 10.293 6.38006 10.198 6.54806 12.055L7.11806 16.435C7.26106 17.078 7.66606 17.555 8.49806 17.555" fill="#595E67"/>
<path fill-rule="evenodd" clip-rule="evenodd" d="M8.5 3.392C7.14625 3.39517 5.84885 3.93435 4.8916 4.8916C3.93435 5.84885 3.39517 7.14625 3.392 8.5C3.392 10.3 4.317 11.865 5.714 12.778V11.416C5.31885 11.0403 5.00426 10.5881 4.78936 10.087C4.57447 9.58586 4.46377 9.04626 4.464 8.501C4.46506 7.43091 4.89062 6.40495 5.64729 5.64829C6.40395 4.89162 7.42991 4.46606 8.5 4.465C9.56974 4.46632 10.5953 4.89186 11.3517 5.64829C12.1081 6.40471 12.5337 7.43026 12.535 8.5C12.535 9.646 12.055 10.68 11.285 11.415V12.777C11.9966 12.3126 12.5814 11.6783 12.9868 10.9315C13.3921 10.1847 13.6053 9.34874 13.607 8.499C13.6038 7.14525 13.0647 5.84785 12.1074 4.8906C11.1502 3.93335 9.85275 3.39417 8.499 3.391L8.5 3.392ZM8.5 1C6.51169 1.00265 4.60557 1.79367 3.19962 3.19962C1.79367 4.60557 1.00265 6.51169 1 8.5C1 11.757 3.088 14.536 5.995 15.57L5.907 14.47C4.54103 13.8698 3.42267 12.8186 2.73913 11.4924C2.05558 10.1662 1.84834 8.64539 2.15209 7.18462C2.45584 5.72385 3.25215 4.41174 4.40772 3.46794C5.56329 2.52413 7.008 2.0059 8.5 2C10.2231 2.00264 11.8749 2.68831 13.0933 3.90673C14.3117 5.12514 14.9974 6.7769 15 8.5C14.9986 9.7657 14.6284 11.0036 13.9345 12.0621C13.2405 13.1206 12.2531 13.9539 11.093 14.46L11.005 15.56C12.4652 15.0438 13.7295 14.0878 14.624 12.8235C15.5185 11.5592 15.9992 10.0487 16 8.5C15.9974 6.51169 15.2063 4.60557 13.8004 3.19962C12.3944 1.79367 10.4883 1.00265 8.5 1" fill="#595E67"/>
<path d="M8.5 1C6.51169 1.00265 4.60557 1.79367 3.19962 3.19962C1.79367 4.60557 1.00265 6.51169 1 8.5C1 11.757 3.088 14.536 5.995 15.57L5.907 14.47C4.54103 13.8698 3.42267 12.8186 2.73913 11.4924C2.05558 10.1662 1.84834 8.64539 2.15209 7.18462C2.45584 5.72385 3.25215 4.41174 4.40772 3.46794C5.56329 2.52413 7.008 2.0059 8.5 2C10.2231 2.00264 11.8749 2.68831 13.0933 3.90673C14.3117 5.12514 14.9974 6.7769 15 8.5C14.9986 9.7657 14.6284 11.0036 13.9345 12.0621C13.2405 13.1206 12.2531 13.9539 11.093 14.46L11.005 15.56C12.4652 15.0438 13.7295 14.0878 14.624 12.8235C15.5185 11.5592 15.9992 10.0487 16 8.5C15.9974 6.51169 15.2063 4.60557 13.8004 3.19962C12.3944 1.79367 10.4883 1.00265 8.5 1M8.5 3.392C7.14625 3.39517 5.84885 3.93435 4.8916 4.8916C3.93435 5.84885 3.39517 7.14625 3.392 8.5C3.392 10.3 4.317 11.865 5.714 12.778V11.416C5.31885 11.0403 5.00426 10.5881 4.78936 10.087C4.57447 9.58586 4.46377 9.04626 4.464 8.501C4.46506 7.43091 4.89062 6.40495 5.64729 5.64829C6.40395 4.89162 7.42991 4.46606 8.5 4.465C9.56974 4.46632 10.5953 4.89186 11.3517 5.64829C12.1081 6.40471 12.5337 7.43026 12.535 8.5C12.535 9.646 12.055 10.68 11.285 11.415V12.777C11.9966 12.3126 12.5814 11.6783 12.9868 10.9315C13.3921 10.1847 13.6053 9.34874 13.607 8.499C13.6038 7.14525 13.0647 5.84785 12.1074 4.8906C11.1502 3.93335 9.85275 3.39417 8.499 3.391L8.5 3.392Z" stroke="#595E67" stroke-width="0.3"/>
</svg>
