<svg width="18" height="12" viewBox="0 0 18 12" fill="none" xmlns="http://www.w3.org/2000/svg">
<g clip-path="url(#clip0)">
<path d="M16.7 1.878C17.057 3.218 17.057 6.013 17.057 6.013C17.057 6.013 17.057 8.808 16.7 10.148C16.6029 10.5083 16.412 10.8364 16.1467 11.0989C15.8814 11.3613 15.5513 11.5487 15.19 11.642C13.86 12.002 8.522 12.002 8.522 12.002C8.522 12.002 3.185 12.002 1.854 11.642C1.49295 11.5482 1.16313 11.3606 0.897948 11.0982C0.632769 10.8358 0.441663 10.508 0.344 10.148C0 8.807 0 6.012 0 6.012C0 6.012 0 3.217 0.357 1.877C0.553 1.137 1.132 0.557 1.867 0.357C3.196 0 8.533 0 8.533 0C8.533 0 13.87 0 15.2 0.36C15.934 0.558 16.513 1.14 16.71 1.88L16.7 1.878ZM6.788 8.55L11.248 6.012L6.788 3.474V8.55V8.55Z" fill="#595E67"/>
</g>
<defs>
<clipPath id="clip0">
<rect width="18" height="12" fill="white"/>
</clipPath>
</defs>
</svg>
