<?xml version="1.0" encoding="UTF-8"?>
<svg width="50px" height="50px" viewBox="0 0 50 50" version="1.1" xmlns="http://www.w3.org/2000/svg" xmlns:xlink="http://www.w3.org/1999/xlink">
    <!-- Generator: Sketch 52.6 (67491) - http://www.bohemiancoding.com/sketch -->
    <title>checked</title>
    <desc>Created with Sketch.</desc>
    <defs>
        <linearGradient x1="0%" y1="0%" x2="75.7705633%" y2="141.791437%" id="linearGradient-1">
            <stop stop-color="#E3076D" offset="0%"></stop>
            <stop stop-color="#AD00AB" offset="100%"></stop>
        </linearGradient>
        <linearGradient x1="0%" y1="0%" x2="76.7005716%" y2="143.531786%" id="linearGradient-2">
            <stop stop-color="#E3076D" offset="0%"></stop>
            <stop stop-color="#AD00AB" offset="98.7874819%"></stop>
        </linearGradient>
    </defs>
    <g id="Page-1" stroke="none" stroke-width="1" fill="none" fill-rule="evenodd">
        <g id="Artboard" transform="translate(-80.000000, -123.000000)">
            <g id="checked" transform="translate(80.000000, 123.000000)">
                <path d="M15.1875,20.5625 C14.5,19.8125 13.3125,19.75 12.5625,20.4375 C11.8125,21.125 11.75,22.3125 12.4375,23.0625 L21.875,33.3125 C22.25,33.6875 22.6875,33.9375 23.1875,33.9375 C23.1875,33.9375 23.1875,33.9375 23.25,33.9375 C23.75,33.9375 24.25,33.75 24.5625,33.375 L48.4375,9.5625 C49.1875,8.8125 49.1875,7.625 48.4375,6.9375 C47.6875,6.25 46.5,6.1875 45.8125,6.9375 L23.3125,29.375 L15.1875,20.5625 Z" id="Path" fill="url(#linearGradient-1)"></path>
                <path d="M48,23.125 C46.9375,23.125 46.125,23.9375 46.125,25 C46.125,36.625 36.625,46.125 25,46.125 C13.375,46.125 3.875,36.625 3.875,25 C3.875,13.375 13.375,3.875 25,3.875 C26.0625,3.875 26.875,3.0625 26.875,2 C26.875,0.9375 26.0625,0.125 25,0.125 C11.3125,0.125 0.125,11.3125 0.125,25 C0.125,38.6875 11.3125,49.875 25,49.875 C38.6875,49.875 49.875,38.6875 49.875,25 C49.875,23.9375 49.0625,23.125 48,23.125 Z" id="Path" fill="url(#linearGradient-2)"></path>
            </g>
        </g>
    </g>
</svg>