<svg xmlns="http://www.w3.org/2000/svg" width="16" height="16" fill="none" xmlns:v="https://www.mindvalley.com"><path fill-rule="evenodd" d="M2.667 4.667c0-1.841 1.492-3.333 3.333-3.333A3.32 3.32 0 0 1 8 2l.12.095c.741.611 1.213 1.537 1.213 2.572v.022A3.33 3.33 0 0 1 8 7.334 3.32 3.32 0 0 1 6 8C4.159 8 2.667 6.508 2.667 4.667zM.976 10.31c.625-.625 1.473-.976 2.357-.976h5.333c.884 0 1.732.351 2.357.976l.221.245c.486.593.755 1.339.755 2.113v1.667c0 .184-.149.333-.332.333H.5a.5.5 0 0 1-.5-.5v-1.5c0-.884.351-1.732.976-2.357zm12.663 4.357a2.01 2.01 0 0 0 .028-.333v-1.667a5 5 0 0 0-1.273-3.333h.273c.884 0 1.732.351 2.357.976S16 11.783 16 12.667v1.5a.5.5 0 0 1-.5.5h-1.861zm-.306-10c0 1.706-1.281 3.113-2.934 3.31a5 5 0 0 0-.516-.159A4.98 4.98 0 0 0 11 4.667a4.98 4.98 0 0 0-1.264-3.323l.264-.01c1.841 0 3.333 1.492 3.333 3.333z" fill="#71767f"/></svg>