<svg xmlns="http://www.w3.org/2000/svg" viewBox="0 0 103 43"><path fill="#111" d="M0 .6v7h7.7v19h8.2v-19h7.7v-7zM45.1.6v7H33.6v2.5h10.5v6.7H33.6v2.8h11.5v7H25.5V.6zM59.7.2c6.9 0 10.7 4.4 11.6 9.7h-8.2c-.5-1.4-1.7-2.6-3.4-2.6-3 0-4.6 2.7-4.6 6.3 0 3.6 1.7 6.3 4.6 6.3 1.7 0 3.1-1.5 3.5-2.9h8.2c-.8 5.3-4.8 10-11.7 10-7.6 0-12.9-5.6-12.9-13.4C46.8 5.8 52.1.2 59.7.2M98 .6v26h-8.2V17h-8.3v9.6h-8.2V.6h8.2V10h8.3V.6zM7.7 29.4h2.2v13.2H7.7zM27.7 42.6H26L19.2 33v9.6h-2.1V29.4h2.1l6.3 9.2v-9.2h2.2zM36.4 39c.4 1.4 1.5 2 3 2s2.6-.7 2.6-2c0-.9-.5-1.5-1.9-1.8l-2.2-.5c-1.8-.4-3.3-1.4-3.3-3.5 0-2.2 1.8-3.9 4.5-3.9 2.9 0 4.5 1.5 5 3.6h-2.2c-.3-1-1.2-1.8-2.7-1.8-1.4 0-2.4.7-2.4 1.8 0 .9.6 1.4 1.7 1.7l2.3.5c2.1.5 3.4 1.7 3.4 3.6 0 2.5-2 4-4.7 4-2.8 0-4.8-1.4-5.3-3.9l2.2.2zM50.7 29.4h2.2v13.2h-2.2zM65 29.4h-4.4v13.2H65c3.9 0 6.4-2.6 6.4-6.6 0-4-2.5-6.6-6.4-6.6zm-.1 11.2h-2.1v-9.2h2.1c2.8 0 4.2 1.8 4.2 4.6.1 2.8-1.4 4.6-4.2 4.6zM86.3 29.4v2h-6.4v3.5h5.8v1.9h-5.8v3.8h6.4v2h-8.6V29.4zM99.2 37.2c2.1-.3 3.4-1.6 3.4-3.8 0-2.6-1.8-3.9-4.5-3.9H93v13.2h2.2v-5.3h1.6l3.7 5.3h2.5l-3.8-5.5zm-4-1.8v-4H98c1.5 0 2.3.8 2.3 2s-.8 2-2.3 2h-2.8z"/></svg>