<svg xmlns="http://www.w3.org/2000/svg" viewBox="0 0 384.21 73.99"><defs><style>.cls-1{fill:#ffc920;}.cls-2{fill:#fff;}</style></defs><title>Asset 1</title><g id="Layer_2" data-name="Layer 2"><g id="Layer_1-2" data-name="Layer 1"><rect class="cls-1" x="74.63" y="1.04" width="13.98" height="71.92"/><polygon class="cls-2" points="200.97 41.39 176.82 41.39 176.82 61.74 205.22 61.74 205.22 72.95 162.74 72.95 162.74 1.04 205.12 1.04 205.12 12.25 176.82 12.25 176.82 30.18 200.97 30.18 200.97 41.39"/><path class="cls-2" d="M324,62.28a25.77,25.77,0,0,1-8.74,8.18Q309.43,74,300.48,74q-11.55,0-18.54-6.77T275,48V26q0-12.4,6.74-19.21T299.55,0q11.94,0,17.92,5.85T323.7,22.6l-.1.29H310.41c-.1-4.06-1-7-2.69-8.88s-4.29-2.8-7.78-2.8a9.74,9.74,0,0,0-8.05,3.64q-2.91,3.63-2.91,11V48q0,7.56,2.93,11.19t8.57,3.64a13,13,0,0,0,6.2-1.14A8.72,8.72,0,0,0,310,58.28V45.39h-9.49V35.51H324Z"/><path class="cls-2" d="M237,34.79q5.66,0,8.49-3.07a11.75,11.75,0,0,0,2.83-8.3q0-5.73-3-8.5t-8.65-2.76h-6.35V34.79ZM216,.89h22.22a31,31,0,0,1,10.23,1.6,20.21,20.21,0,0,1,7.77,4.78,19.26,19.26,0,0,1,4.43,7.1,28.4,28.4,0,0,1,1.54,9.78v.61a23,23,0,0,1-3.35,12.45c-2.25,3.62-6.55,5.85-6.63,5.92l15.88,29.79H251.67L237.73,46.81h-7.35V72.92H216Z"/><polygon class="cls-2" points="384.21 1.12 368.18 1.12 357.02 21.87 345.86 1.12 330.1 1.12 350.37 38.43 350.49 38.41 350.49 72.85 364.28 72.85 364.28 37.1 364.55 37.13 384.21 1.12"/><polygon class="cls-1" points="0 0.91 13.98 0.91 28.65 28.57 43.38 0.91 57.36 0.91 57.36 72.35 44.09 72.35 44.09 28.41 28.7 57.5 28.5 57.5 13.27 28.36 13.27 72.35 0 72.35 0 0.91"/><polygon class="cls-2" points="135.5 72.95 116.87 37.1 128.74 14.18 135.74 0.66 152.18 0.66 137.54 26.82 131.95 36.81 151.73 72.95 135.5 72.95"/><polygon class="cls-1" points="113.43 0.66 132.05 36.51 119.76 60.25 113.18 72.95 96.75 72.95 111.1 47.3 116.98 36.8 97.19 0.66 113.43 0.66"/></g></g></svg>