<svg xmlns="http://www.w3.org/2000/svg" viewBox="0 0 1202.4 187.8" xmlns:v="https://www.mindvalley.com"><path d="M25.9 43.1v101.7H0V3h25.1l43.8 56 44.9-55.8H138v141.7h-25.9V42.6L69.9 94.2h-3zm210 101.8h-27.4V38.5h23.1l2.4 22.2c6.7-15.2 20.3-25.1 40.7-25.1 28.8 0 44.8 18.3 44.8 46.8v62.5h-27.4V89.1c0-19-6.7-30.7-26.3-30.7-20.5 0-30 12.8-30 34.4v52.1zm192.9-21.5c-6.7 14.8-20.5 24-41.6 24-30 0-51.4-17.8-51.4-55.1v-1.5c0-35.5 20.9-55.1 52.3-55.1 18.7 0 32.2 7.6 39.6 20.7V3.2h26.4v141.6h-22.9l-2.4-21.4zm-.2-31.2v-1.1c0-20.5-12.4-33.3-32.5-33.3-21.8 0-34.2 12.4-34.2 33.3v1.3c0 21.8 13.1 32.4 33.4 32.4 21.3-.1 33.3-12.1 33.3-32.6zm86 52.7L466.5 38.6h29l32 76.4 33.1-76.4H590l-50.5 106.3zm207.8 0V3.2h27.2v141.6h-27.2zm48.6 0V3.2h27.2v141.6H771zm103.8 3.1c-41.2 0-59.5-21.5-59.5-54v-1.7c0-32.9 22.2-56.8 60.8-56.8 39.6 0 59.2 24.2 59.2 54.7v11.3h-93.8c2.6 16.1 13.9 24.6 34.8 24.6 15.3 0 23.9-4.4 28.1-12.8H934c-8.5 23.4-28.6 34.7-59.2 34.7zm-32.9-66.8h66.6c-2.4-16.1-12.6-24.6-31.8-24.6-19.8.1-31.4 9.1-34.8 24.6zm101.2 106.6v-23.5h13.5c15.9 0 20.7-4.1 27.7-17.8l2.6-5.5-49.6-102.4h29.2l32.7 71.2 1.1 4.3 1.3-4.1 32.4-71.4h28.8l-53.7 112.6c-15.5 32-22.4 36.6-53.3 36.6zM173.7 40.2a48.87 48.87 0 0 1-14.2-1.7v106.4h27.7V38.4a45 45 0 0 1-13.5 1.8zm.2-11.4c9.8 0 15.1-3.6 15.1-14.3C189 4.2 183.9 0 173.9 0h0c-9.9 0-15.1 4.2-15.1 14.5 0 10.8 5.3 14.3 15.1 14.3zm887.8-26c4.8.4 9.6 1 14.4 1.7 6.9 1 13.8 2.3 20.6 3.9 6.4 1.6 13.2 3.3 19 6.5 10.1 5.6 12.2 17.4 12.2 28.1v21.8c-46.3-23.6-66.2-62-66.2-62zm140.7 0c-4.8.4-9.6 1-14.4 1.7-6.9 1-13.8 2.3-20.6 3.9-6.4 1.6-13.2 3.3-19 6.5-10.1 5.6-12.2 17.4-12.2 28.1v21.8c46.2-23.6 66.2-62 66.2-62zM677.9 123.3c-7.8 15-24.2 25.9-49.6 25.9s-39-10.7-39-29.2c0-12 5.2-21.1 15-26.4 9.8-5.5 18.4-6.9 44.1-10 14.9-1.8 28.2-2.6 28.2-2.6v-9.6c0-8.1-6.5-14.2-25.5-14.2-21.3 0-29.6 7-30.7 20h-27.9c2.4-25.7 22.4-40.3 56.8-40.3 37.2 0 53.4 12.4 53.4 39.8v69.5h-22zm-1.3-25.5s-11.6.9-23.6 2.4c-15.9 1.7-22.9 3-27.9 5.9-4.6 2.8-7.3 6-7.3 10.8v.2c0 7.8 7.9 12 19.3 11.9 23.6-.1 39.5-15.6 39.5-31.2z" fill="#7a12d4"/></svg>