<svg xmlns="http://www.w3.org/2000/svg" fill="none" viewBox="0 0 72 12">
  <defs/>
  <path fill="#111" fill-rule="evenodd" d="M2.867 11.807H.5V.655h2.367v11.152zM4.467 3.688h2.29v.75a2.988 2.988 0 012.22-.928c1.867 0 2.92 1.2 2.92 3v5.305h-2.29v-4.83c0-.855-.442-1.435-1.348-1.435a1.5 1.5 0 00-1.5 1.125v5.14H4.47l-.002-8.127zM13.184 9.083a4.592 4.592 0 002.848 1.124c.684 0 1.221-.2 1.221-.69 0-.49-.369-.617-.944-.8l-.794-.217c-1.443-.382-2.349-1.052-2.349-2.452 0-1.58 1.387-2.543 3.237-2.543a4.745 4.745 0 012.644.73v2.053c-.74-.583-1.59-1-2.545-1-.628 0-1.11.235-1.11.69 0 .455.316.582.889.762l.924.273c1.572.435 2.29 1.162 2.29 2.47 0 1.634-1.46 2.5-3.402 2.5-1.092 0-2.22-.29-2.922-.818l.013-2.082zM23.06 11.807h-2.29v-8.12h2.29v8.12zM21.912 2.732a1.35 1.35 0 001.362-1.337A1.35 1.35 0 0021.912.057a1.35 1.35 0 00-1.361 1.338c0 .739.61 1.337 1.361 1.337zM28.015 11.988a2.873 2.873 0 002.072-.853v.672h2.31V0h-2.31v4.36a2.87 2.87 0 00-2.072-.855c-2.405 0-3.753 1.925-3.753 4.25s1.348 4.233 3.753 4.233zm.52-6.52a1.754 1.754 0 011.552.944v2.67a1.7 1.7 0 01-1.553.945c-1.239 0-1.98-.96-1.98-2.27s.741-2.29 1.98-2.29zM38.074 10.135c-1.219 0-2.199-.545-2.384-1.87h5.323v-.728c0-2.397-1.236-4.032-3.641-4.032-2.258 0-3.884 1.725-3.884 4.305 0 2.58 1.72 4.178 4.235 4.178 1.11 0 2.033-.208 2.718-.708V9.428a4.057 4.057 0 01-2.367.707zm-2.305-3.343h-.006l.006.003v-.003zm3.12 0h-3.12c.255-1.015.9-1.487 1.659-1.5.906 0 1.404.628 1.46 1.5zM47.059 5.905a2.324 2.324 0 00-1.145-.272c-.776 0-1.405.4-1.573 1.144v5.033h-2.29V3.687h2.29v.798c.4-.628 1.107-1 1.86-.98.297-.01.592.039.868.145l-.01 2.255zM51.86 11.807h-.944V.655h.944v11.152zM54.174 3.735h.924v1.29a3.212 3.212 0 012.626-1.452c1.868 0 2.847 1.18 2.847 2.887v5.34h-.905V6.595c0-1.25-.647-2.18-2.108-2.18-1.127 0-2.053.78-2.458 1.75v5.65h-.924l-.002-8.08zM65.878 3.58a3.378 3.378 0 012.18.707v.928a3.027 3.027 0 00-2.145-.818c-1.626 0-2.939 1.25-2.939 3.38s1.313 3.38 2.94 3.38a3.027 3.027 0 002.145-.817v.928a3.378 3.378 0 01-2.181.707c-2.202 0-3.818-1.652-3.818-4.195s1.619-4.2 3.818-4.2zM70.267 11.883c.565 0 1.023-.45 1.023-1.005 0-.556-.458-1.005-1.023-1.005s-1.023.45-1.023 1.005c0 .554.458 1.005 1.023 1.005z" clip-rule="evenodd"/>
</svg>