<svg width="151" height="32" xmlns="http://www.w3.org/2000/svg" xmlns:xlink="http://www.w3.org/1999/xlink"><defs><path id="a" d="M.35.242h33.815v31.443H.35z"/><path id="c" d="M.166.565h10.3V19.89H.165z"/></defs><g fill="none" fill-rule="evenodd"><path d="M9.198 10.795c-.518-.37-1.085-.543-2.045-.592-.444-.025-.69-.025-1.06-.025-.098 0-.148.05-.148.173v5.841c0 1.627.074 2.046.863 2.367.665.27 1.231.295 1.798.295 1.11 0 2.981-.591 2.981-3.155 0-1.528-.517-3.598-2.39-4.904zM5.945 8.822c0 .198.074.247.173.272.222.049.591.074 1.158.074.813 0 1.355-.1 1.774-.469.64-.517 1.01-1.404 1.01-2.612 0-1.652-.961-3.82-3.08-3.82-.345 0-.567 0-.813.048-.172.05-.222.148-.222.42v6.087zM2.99 8.404c0-3.747 0-4.437-.05-5.226-.049-.838-.246-1.232-1.06-1.405-.197-.05-.615-.074-.96-.074C.648 1.7.5 1.65.5 1.477c0-.172.173-.221.542-.221 1.306 0 2.858.074 3.351.074 1.207 0 2.168-.074 3.006-.074 4.46 0 5.248 2.39 5.248 3.697 0 2.021-1.158 3.229-2.513 4.314 2.02.69 4.484 2.44 4.484 5.323 0 2.638-2.045 5.373-6.579 5.373-.295 0-1.01-.05-1.724-.074a32.786 32.786 0 00-1.848-.073c-.27 0-.813 0-1.405.025-.566 0-1.207.048-1.7.048-.32 0-.492-.073-.492-.246 0-.123.098-.197.394-.197.37 0 .665-.05.887-.099.493-.098.616-.64.714-1.355.124-1.036.124-2.983.124-5.25V8.403zM19.303 8.404c0-3.747 0-4.437-.05-5.226-.049-.838-.246-1.232-1.06-1.405-.197-.049-.615-.074-.96-.074-.271 0-.419-.049-.419-.221 0-.173.173-.223.542-.223 1.306 0 2.858.075 3.597.075.592 0 2.144-.075 3.031-.075.37 0 .542.05.542.223 0 .172-.148.221-.394.221-.27 0-.419.025-.715.074-.665.124-.862.543-.911 1.405-.05.789-.05 1.48-.05 5.226v3.45c0 3.574.715 5.078 1.922 6.064 1.109.912 2.243 1.01 3.08 1.01 1.084 0 2.415-.345 3.4-1.331 1.356-1.355 1.43-3.573 1.43-6.113v-3.08c0-3.747 0-4.437-.05-5.226-.05-.838-.246-1.232-1.06-1.405-.197-.049-.616-.074-.886-.074-.271 0-.419-.049-.419-.221 0-.173.173-.223.517-.223 1.257 0 2.81.075 2.834.075.295 0 1.848-.075 2.809-.075.345 0 .517.05.517.223 0 .172-.148.221-.443.221-.271 0-.42.025-.715.074-.665.124-.862.543-.912 1.405-.05.789-.05 1.48-.05 5.226v2.637c0 2.736-.27 5.644-2.34 7.42-1.75 1.502-3.523 1.774-5.124 1.774-1.307 0-3.672-.074-5.47-1.7-1.257-1.135-2.193-2.959-2.193-6.533V8.404zM39.954 19.594c-.395-.173-.469-.296-.469-.838 0-1.356.099-2.835.124-3.229.024-.37.098-.64.295-.64.222 0 .247.22.247.418 0 .32.098.838.222 1.257.542 1.824 1.995 2.49 3.523 2.49 2.217 0 3.302-1.504 3.302-2.81 0-1.208-.37-2.342-2.415-3.944l-1.133-.888c-2.71-2.119-3.647-3.845-3.647-5.84 0-2.712 2.267-4.66 5.691-4.66 1.602 0 2.637.247 3.278.42.221.05.345.123.345.295 0 .32-.099 1.036-.099 2.958 0 .542-.074.74-.271.74-.173 0-.247-.149-.247-.444 0-.222-.123-.986-.64-1.627-.37-.468-1.084-1.208-2.686-1.208-1.823 0-2.932 1.06-2.932 2.539 0 1.134.567 1.997 2.612 3.55l.69.517c2.981 2.243 4.04 3.944 4.04 6.286 0 1.429-.541 3.13-2.315 4.288-1.232.789-2.612 1.01-3.918 1.01-1.43 0-2.538-.172-3.597-.64M57.284 12.81c0-6.112 0-7.238-.08-8.524-.08-1.367-.483-2.05-1.368-2.252-.442-.12-.965-.161-1.447-.161-.402 0-.643-.08-.643-.401 0-.242.321-.323.964-.323 1.529 0 4.062.121 5.228.121 1.005 0 3.377-.12 4.905-.12.523 0 .844.08.844.322 0 .321-.241.4-.643.4s-.724.042-1.206.122c-1.086.201-1.408.885-1.488 2.292-.08 1.286-.08 2.412-.08 8.524v7.077c0 3.9 0 7.077.16 8.805.122 1.087.403 1.81 1.609 1.97.563.081 1.447.162 2.05.162.443 0 .644.12.644.322 0 .281-.322.402-.764.402-2.654 0-5.187-.12-6.273-.12-.924 0-3.457.12-5.066.12-.522 0-.805-.12-.805-.402 0-.202.162-.322.644-.322a6.56 6.56 0 001.448-.161c.804-.161 1.045-.845 1.165-2.01.202-1.69.202-4.866.202-8.766V12.81z" fill="#111"/><g transform="translate(70.324 .345)"><mask id="b" fill="#fff"><use xlink:href="#a"/></mask><path d="M7.306 25.734c.08 3.136.603 4.182 1.407 4.463.684.242 1.448.282 2.092.282.442 0 .683.08.683.322 0 .321-.362.401-.925.401-2.613 0-4.222-.12-4.986-.12-.361 0-2.251.12-4.342.12-.523 0-.885-.04-.885-.401 0-.241.242-.322.643-.322.523 0 1.247-.04 1.81-.202 1.045-.321 1.206-1.487 1.246-4.985l.362-23.683c0-.804.12-1.367.523-1.367.443 0 .804.522 1.488 1.246.482.522 6.594 6.956 12.464 12.787 2.735 2.734 8.162 8.524 8.846 9.167h.2l-.401-18.054c-.04-2.452-.402-3.216-1.367-3.619-.604-.24-1.568-.24-2.131-.24-.482 0-.643-.121-.643-.362 0-.322.442-.362 1.045-.362 2.09 0 4.02.12 4.865.12.442 0 1.97-.12 3.94-.12.523 0 .925.04.925.362 0 .24-.241.361-.723.361-.403 0-.724 0-1.207.121-1.126.322-1.447 1.166-1.488 3.418l-.442 25.372c0 .884-.16 1.246-.522 1.246-.443 0-.926-.442-1.367-.884-2.534-2.413-7.68-7.68-11.862-11.822-4.382-4.343-8.845-9.248-9.57-10.012h-.12l.442 16.767z" fill="#111" mask="url(#b)"/></g><path d="M110.841 8.404c0-3.747 0-4.437-.049-5.226-.05-.838-.246-1.232-1.06-1.405-.197-.049-.615-.074-.96-.074-.271 0-.42-.049-.42-.221 0-.173.173-.223.543-.223.665 0 1.38.025 1.996.025.64.025 1.207.05 1.552.05.788 0 5.692 0 6.16-.025.468-.05.862-.099 1.059-.148.123-.025.271-.099.394-.099s.148.099.148.222c0 .173-.123.469-.197 1.602-.025.247-.074 1.331-.123 1.627-.025.124-.074.271-.247.271-.172 0-.221-.123-.221-.345 0-.173-.025-.591-.148-.887-.173-.444-.42-.74-1.65-.887-.42-.05-3.007-.099-3.5-.099-.123 0-.172.074-.172.246v6.236c0 .173.024.272.172.272.542 0 3.376 0 3.943-.05.591-.049.96-.123 1.182-.37.173-.197.271-.32.394-.32.099 0 .173.05.173.197 0 .148-.099.543-.197 1.8-.025.493-.099 1.479-.099 1.651 0 .197 0 .468-.222.468-.172 0-.221-.098-.221-.221-.025-.247-.025-.567-.1-.888-.122-.493-.467-.863-1.379-.961-.468-.05-2.907-.074-3.498-.074-.124 0-.148.098-.148.247v1.947c0 .837-.025 3.105 0 3.82.05 1.701.443 2.07 2.956 2.07.641 0 1.676 0 2.316-.295.641-.296.937-.814 1.11-1.824.049-.271.098-.37.27-.37.198 0 .198.197.198.444 0 .567-.198 2.243-.32 2.736-.173.64-.395.64-1.332.64-1.847 0-3.203-.049-4.262-.074a54.267 54.267 0 00-2.562-.073c-.271 0-.813 0-1.405.024-.567 0-1.207.05-1.7.05-.32 0-.493-.074-.493-.247 0-.123.1-.197.395-.197.369 0 .665-.05.886-.099.493-.098.616-.64.715-1.355.123-1.036.123-2.983.123-5.25V8.404zM125.504 19.594c-.394-.173-.468-.296-.468-.838 0-1.356.098-2.835.123-3.229.025-.37.098-.64.296-.64.221 0 .246.22.246.418 0 .32.099.838.222 1.257.542 1.824 1.995 2.49 3.523 2.49 2.218 0 3.302-1.504 3.302-2.81 0-1.208-.37-2.342-2.415-3.944l-1.133-.888c-2.71-2.119-3.647-3.845-3.647-5.84 0-2.712 2.267-4.66 5.692-4.66 1.602 0 2.636.247 3.277.42.222.05.345.123.345.295 0 .32-.099 1.036-.099 2.958 0 .542-.074.74-.27.74-.173 0-.247-.149-.247-.444 0-.222-.124-.986-.641-1.627-.37-.468-1.084-1.208-2.686-1.208-1.823 0-2.932 1.06-2.932 2.539 0 1.134.567 1.997 2.612 3.55l.69.517c2.981 2.243 4.041 3.944 4.041 6.286 0 1.429-.542 3.13-2.316 4.288-1.232.789-2.612 1.01-3.918 1.01-1.429 0-2.537-.172-3.597-.64" fill="#111"/><g transform="translate(140.148 .345)"><mask id="d" fill="#fff"><use xlink:href="#c"/></mask><path d="M.634 19.249c-.394-.173-.468-.296-.468-.838 0-1.356.099-2.835.123-3.229.025-.37.099-.64.296-.64.222 0 .246.22.246.418 0 .32.1.838.222 1.257.542 1.824 1.996 2.49 3.524 2.49 2.217 0 3.301-1.504 3.301-2.81 0-1.208-.37-2.342-2.415-3.944l-1.133-.888C1.62 8.946.684 7.22.684 5.225c0-2.712 2.266-4.66 5.691-4.66 1.602 0 2.636.247 3.277.42.222.05.345.123.345.295 0 .32-.098 1.036-.098 2.958 0 .542-.074.74-.271.74-.173 0-.247-.149-.247-.444 0-.222-.123-.986-.64-1.627C8.37 2.44 7.656 1.7 6.054 1.7c-1.823 0-2.932 1.06-2.932 2.539 0 1.134.567 1.997 2.611 3.55l.69.517c2.982 2.243 4.041 3.944 4.041 6.286 0 1.43-.542 3.13-2.315 4.288-1.233.789-2.613 1.01-3.918 1.01-1.43 0-2.538-.172-3.598-.64" fill="#111" mask="url(#d)"/></g><path d="M108.396 31.34c-.196-.086-.233-.148-.233-.418 0-.674.05-1.41.061-1.606.013-.184.05-.32.147-.32.11 0 .123.111.123.209 0 .16.049.417.11.626.27.908.994 1.239 1.754 1.239 1.105 0 1.644-.748 1.644-1.399 0-.6-.184-1.165-1.202-1.962l-.564-.441c-1.35-1.055-1.816-1.914-1.816-2.908 0-1.349 1.129-2.318 2.834-2.318a5.92 5.92 0 011.631.209c.11.024.172.06.172.146 0 .16-.05.516-.05 1.473 0 .27-.036.368-.134.368-.086 0-.122-.074-.122-.221 0-.11-.063-.49-.32-.81-.184-.233-.54-.6-1.336-.6-.908 0-1.46.527-1.46 1.263 0 .564.282.993 1.3 1.766l.343.257c1.484 1.117 2.012 1.963 2.012 3.128 0 .712-.27 1.558-1.153 2.134-.613.393-1.3.503-1.95.503-.712 0-1.264-.085-1.791-.318M116.429 25.77c0-1.864 0-2.207-.025-2.6-.025-.417-.147-.625-.417-.687a1.76 1.76 0 00-.442-.048c-.123 0-.196-.025-.196-.123 0-.074.098-.098.295-.098.465 0 1.238.036 1.594.036.307 0 1.03-.036 1.497-.036.159 0 .257.024.257.098 0 .098-.074.123-.196.123-.123 0-.221.012-.368.036-.331.062-.43.27-.454.7-.024.392-.024.735-.024 2.6v2.159c0 1.19 0 2.158.049 2.686.036.331.122.552.49.601.172.024.442.049.626.049.135 0 .196.037.196.098 0 .086-.098.123-.233.123-.81 0-1.583-.037-1.914-.037-.282 0-1.055.037-1.545.037-.16 0-.245-.037-.245-.123 0-.061.048-.098.196-.098.184 0 .331-.025.441-.049.246-.05.32-.257.357-.614.06-.515.06-1.483.06-2.673v-2.16zM123.725 27.12c0 1.3.013 2.245.025 2.478.012.307.036.797.135.932.16.233.638.49 1.607.49 1.251 0 2.085-.245 2.82-.882.786-.675 1.03-1.792 1.03-3.054 0-1.558-.649-2.564-1.177-3.067-1.127-1.08-2.526-1.227-3.483-1.227-.245 0-.7.037-.797.086-.11.05-.147.11-.147.245-.013.417-.013 1.485-.013 2.454v1.545zm-1.532-1.349c0-1.865 0-2.208-.025-2.6-.025-.418-.123-.614-.528-.7a2.561 2.561 0 00-.478-.036c-.135 0-.209-.025-.209-.11 0-.087.086-.111.27-.111.65 0 1.423.037 1.766.037.381 0 1.153-.037 1.89-.037 1.532 0 3.58 0 4.919 1.398.613.638 1.189 1.656 1.189 3.115 0 1.546-.65 2.724-1.337 3.423-.564.576-1.84 1.447-4.109 1.447-.442 0-.945-.037-1.41-.073-.467-.037-.896-.074-1.203-.074-.135 0-.404 0-.699.012-.282 0-.6.025-.846.025-.16 0-.245-.037-.245-.123 0-.062.048-.098.196-.098.183 0 .33-.025.441-.05.246-.049.307-.318.356-.673.062-.516.062-1.485.062-2.613V25.77zM134.014 25.77c0-1.864 0-2.207-.024-2.6-.025-.417-.123-.613-.528-.699a2.57 2.57 0 00-.479-.036c-.134 0-.207-.025-.207-.11 0-.087.085-.111.27-.111.33 0 .686.012.992.012.32.012.601.024.773.024.393 0 2.833 0 3.067-.012.232-.024.429-.049.527-.073.061-.013.135-.049.196-.049.062 0 .074.049.074.11 0 .086-.061.233-.098.797-.013.123-.037.663-.061.81-.013.061-.038.135-.123.135-.086 0-.11-.062-.11-.172 0-.086-.012-.294-.074-.441-.086-.222-.208-.369-.822-.442-.208-.025-1.496-.05-1.742-.05-.06 0-.085.037-.085.123v3.104c0 .086.011.134.085.134.27 0 1.68 0 1.963-.024.294-.024.478-.061.589-.184.085-.098.135-.16.196-.16.049 0 .085.025.085.099 0 .073-.048.27-.098.895-.012.246-.048.736-.048.822 0 .098 0 .233-.11.233-.087 0-.112-.049-.112-.11-.011-.123-.011-.283-.048-.442-.061-.245-.233-.43-.687-.478-.233-.025-1.447-.037-1.742-.037-.062 0-.073.049-.073.123v.969c0 .417-.013 1.545 0 1.9.024.847.22 1.031 1.472 1.031.318 0 .833 0 1.152-.147.319-.147.466-.405.552-.908.025-.135.05-.184.135-.184.098 0 .098.098.098.221 0 .282-.098 1.117-.16 1.362-.085.318-.195.318-.661.318-.92 0-1.595-.024-2.122-.036a27.598 27.598 0 00-1.276-.037c-.135 0-.405 0-.7.012-.282 0-.6.025-.846.025-.159 0-.245-.037-.245-.123 0-.061.049-.098.196-.098.184 0 .332-.025.442-.049.245-.05.307-.319.356-.675.061-.515.061-1.484.061-2.612v-2.16zM143.433 26.74c0 .135.024.184.11.22.258.086.625.123.932.123.49 0 .65-.049.871-.208.368-.27.724-.834.724-1.84 0-1.742-1.153-2.245-1.877-2.245-.307 0-.528.013-.65.05-.086.024-.11.073-.11.171v3.729zm-1.448-.969c0-1.865 0-2.208-.024-2.6-.025-.418-.123-.614-.528-.7a2.568 2.568 0 00-.478-.036c-.135 0-.208-.025-.208-.11 0-.087.085-.111.27-.111.649 0 1.422.037 1.68.037.416 0 1.349-.037 1.728-.037.774 0 1.595.074 2.258.527.344.234.834.859.834 1.68 0 .908-.38 1.743-1.62 2.748 1.093 1.374 1.939 2.466 2.662 3.226.687.712 1.19.797 1.374.834.135.025.246.037.344.037.098 0 .147.036.147.098 0 .098-.086.123-.233.123h-1.165c-.687 0-.994-.062-1.313-.233-.527-.282-.993-.86-1.68-1.803-.49-.675-1.055-1.509-1.215-1.693-.061-.073-.134-.086-.22-.086l-1.067-.024c-.062 0-.098.024-.098.098v.171c0 1.141 0 2.11.06 2.625.038.356.111.626.479.675.184.024.453.05.6.05.1 0 .148.035.148.097 0 .086-.086.123-.245.123-.711 0-1.62-.037-1.803-.037-.233 0-1.006.037-1.497.037-.159 0-.245-.037-.245-.123 0-.062.049-.098.196-.098.184 0 .332-.025.442-.05.245-.048.307-.318.356-.674.061-.515.061-1.484.061-2.612V25.77z" fill="#111"/></g></svg>