<svg xmlns="http://www.w3.org/2000/svg" width="36" height="36" viewBox="0 0 36 36" fill="none"><rect opacity="0.8" width="36" height="36" rx="4" fill="#848393"></rect><path d="M17.571 6C11.1168 6.22414 6 11.478 6 17.9895C6 18.8285 6.08514 19.6465 6.24693 20.4358H17.571V19.3811V18.5232V17.4716V16.6147V15.559V14.7021V13.6484V12.7915V11.7379V10.881V9.82736V8.97044V6ZM10.8862 10.769C11.4238 10.769 11.9236 10.9279 12.3573 11.1928C12.1254 11.1234 11.8842 11.0766 11.6312 11.0766C10.1648 11.0766 8.97567 12.3243 8.97567 13.8598C8.97567 15.3953 10.1648 16.643 11.6312 16.643C11.8638 16.643 12.0857 16.6024 12.3008 16.5436C11.88 16.7878 11.4009 16.9338 10.8862 16.9338C9.2649 16.9338 7.94821 15.5537 7.94821 13.8514C7.94821 12.1492 9.2649 10.769 10.8862 10.769ZM13.8347 11.4115L14.0764 12.757L14.8663 11.6542L14.5148 12.9746L15.694 12.3312L14.8182 13.3649L16.1533 13.3115L14.926 13.8535L16.1522 14.3986L14.8172 14.3411L15.6898 15.3769L14.5116 14.7314L14.8601 16.0528L14.0722 14.9469L13.8274 16.2924L13.5857 14.9459L12.7957 16.0487L13.1473 14.7293L11.9681 15.3717L12.8438 14.338L11.5088 14.3913L12.7361 13.8493L11.5098 13.3042L12.8449 13.3618L11.9723 12.3259L13.1504 12.9725L12.802 11.6511L13.5888 12.756L13.8347 11.4115Z" fill="#F3F3F3"></path><path d="M18.429 6C20.0482 6.05625 21.5819 6.42984 22.973 7.05993H18.429V6Z" fill="#F3F3F3"></path><path d="M18.429 7.91675H24.5414C25.0315 8.23447 25.4963 8.58632 25.933 8.97037H18.429V7.91675Z" fill="#F3F3F3"></path><path d="M18.429 9.82739H26.814C27.1231 10.1612 27.4127 10.5133 27.6824 10.881H18.429V9.82739Z" fill="#F3F3F3"></path><path d="M18.429 11.7378H28.2589C28.4659 12.078 28.6552 12.4297 28.8281 12.7914H18.429V11.7378Z" fill="#F3F3F3"></path><path d="M18.429 13.6484H29.1943C29.3268 13.9922 29.4438 14.3436 29.5448 14.7021H18.429V13.6484Z" fill="#F3F3F3"></path><path d="M18.429 15.5591H29.7562C29.8267 15.9054 29.8802 16.258 29.9205 16.6148H18.429V15.5591Z" fill="#F3F3F3"></path><path d="M18.429 17.4717H29.9864C29.9936 17.6434 30 17.816 30 17.9896C30 18.1685 29.994 18.3463 29.9864 18.5232H18.429V17.4717Z" fill="#F3F3F3"></path><path d="M18.429 19.3811H29.9184C29.8777 19.7375 29.824 20.0897 29.753 20.4357H18.429V19.3811Z" fill="#F3F3F3"></path><path d="M6.46033 21.2927H29.5396C29.4382 21.6508 29.3219 22.002 29.1891 22.3453H6.81084C6.67803 22.002 6.56174 21.6508 6.46033 21.2927Z" fill="#F3F3F3"></path><path d="M7.1781 23.2021H28.8218C28.648 23.5645 28.4565 23.9161 28.2485 24.2568H7.75147C7.54347 23.9161 7.35193 23.5645 7.1781 23.2021Z" fill="#F3F3F3"></path><path d="M8.3291 25.1147H27.671C27.4005 25.4821 27.1092 25.8328 26.7994 26.1663H9.20067C8.89087 25.8328 8.59953 25.4821 8.3291 25.1147Z" fill="#F3F3F3"></path><path d="M10.0837 27.0232H25.9163C25.4767 27.4083 25.0087 27.7608 24.5153 28.0789H11.4847C10.9914 27.7608 10.5233 27.4083 10.0837 27.0232Z" fill="#F3F3F3"></path><path d="M13.0646 28.936H22.9354C21.4315 29.6109 19.7627 29.9897 18 29.9897C16.2372 29.9897 14.5684 29.6109 13.0646 28.936Z" fill="#F3F3F3"></path></svg>