<?xml version="1.0" encoding="utf-8"?>
<!-- Generator: Adobe Illustrator 25.4.1, SVG Export Plug-In . SVG Version: 6.00 Build 0)  -->
<svg version="1.1" id="Layer_1" xmlns="http://www.w3.org/2000/svg" xmlns:xlink="http://www.w3.org/1999/xlink" x="0px" y="0px"
	 viewBox="0 0 24 24" style="enable-background:new 0 0 24 24;" xml:space="preserve">
<path style="fill:#FE4500;" d="M11.6,0C5.1,0.2,0,5.5,0,12c0,0.8,0.1,1.7,0.2,2.4h11.3v-1.1v-0.9v-1.1v-0.9V9.6V8.7V7.6V6.8V5.7V4.9
	V3.8V3V0z M4.9,4.8c0.5,0,1,0.2,1.5,0.4C6.1,5.1,5.9,5.1,5.6,5.1C4.2,5.1,3,6.3,3,7.9s1.2,2.8,2.7,2.8c0.2,0,0.5,0,0.7-0.1
	c-0.4,0.2-0.9,0.4-1.4,0.4c-1.6,0-2.9-1.4-2.9-3.1C1.9,6.1,3.3,4.8,4.9,4.8z M7.8,5.4l0.2,1.3l0.8-1.1L8.5,7l1.2-0.6l-0.9,1l1.3-0.1
	L8.9,7.9l1.2,0.5L8.8,8.3l0.9,1L8.5,8.7l0.3,1.3L8.1,8.9l-0.2,1.3L7.6,8.9L6.8,10l0.4-1.3L6,9.4l0.9-1L5.5,8.4l1.2-0.5L5.5,7.3
	l1.3,0.1L6,6.3L7.2,7L6.8,5.7l0.8,1.1L7.8,5.4z"/>
<path style="fill:#FE4500;" d="M12.4,0C14,0.1,15.6,0.4,17,1.1h-4.5V0z"/>
<path style="fill:#FE4500;" d="M12.4,1.9h6.1c0.5,0.3,1,0.7,1.4,1.1h-7.5V1.9z"/>
<path style="fill:#FE4500;" d="M12.4,3.8h8.4c0.3,0.3,0.6,0.7,0.9,1.1h-9.3V3.8z"/>
<path style="fill:#FE4500;" d="M12.4,5.7h9.8c0.2,0.3,0.4,0.7,0.6,1.1H12.4V5.7z"/>
<path style="fill:#FE4500;" d="M12.4,7.6h10.8c0.1,0.3,0.2,0.7,0.4,1.1H12.4V7.6z"/>
<path style="fill:#FE4500;" d="M12.4,9.6h11.3c0.1,0.3,0.1,0.7,0.2,1.1H12.4V9.6z"/>
<path style="fill:#FE4500;" d="M12.4,11.5H24c0,0.2,0,0.3,0,0.5c0,0.2,0,0.4,0,0.5H12.4V11.5z"/>
<path style="fill:#FE4500;" d="M12.4,13.4h11.5c0,0.4-0.1,0.7-0.2,1.1H12.4V13.4z"/>
<path style="fill:#FE4500;" d="M0.5,15.3h23.1c-0.1,0.4-0.2,0.7-0.4,1.1H0.8C0.7,16,0.6,15.7,0.5,15.3z"/>
<path style="fill:#FE4500;" d="M1.2,17.2h21.6c-0.2,0.4-0.4,0.7-0.6,1.1H1.8C1.5,17.9,1.4,17.6,1.2,17.2z"/>
<path style="fill:#FE4500;" d="M2.3,19.1h19.3c-0.3,0.4-0.6,0.7-0.9,1.1H3.2C2.9,19.8,2.6,19.5,2.3,19.1z"/>
<path style="fill:#FE4500;" d="M4.1,21h15.8c-0.4,0.4-0.9,0.7-1.4,1.1h-13C5,21.8,4.5,21.4,4.1,21z"/>
<path style="fill:#FE4500;" d="M7.1,22.9h9.9C15.4,23.6,13.8,24,12,24C10.2,24,8.6,23.6,7.1,22.9z"/>
</svg>
