<?xml version="1.0" encoding="utf-8"?>
<!-- Generator: Adobe Illustrator 25.4.1, SVG Export Plug-In . SVG Version: 6.00 Build 0)  -->
<svg version="1.1" id="Layer_1" xmlns="http://www.w3.org/2000/svg" xmlns:xlink="http://www.w3.org/1999/xlink" x="0px" y="0px"
	 viewBox="0 0 24 24" style="enable-background:new 0 0 24 24;" xml:space="preserve">
<path style="fill-rule:evenodd;clip-rule:evenodd;fill:#FE4500;" d="M12,0C5.5,0,0.2,5.1,0,11.6h24C23.8,5.1,18.5,0,12,0z M9.6,1.5
	c0.5,0,1.1,0.1,1.6,0.3c-1.1,0-2.1,0.4-2.8,1.2S7.2,4.7,7.2,5.8s0.4,2.1,1.2,2.8c0.7,0.8,1.8,1.2,2.8,1.2c-0.5,0.2-1,0.3-1.6,0.3
	c-1.1,0-2.2-0.5-3.1-1.3C5.7,8,5.2,6.9,5.2,5.8s0.5-2.2,1.3-3.1C7.3,1.9,8.4,1.5,9.6,1.5z M11.5,2.2l0.2,0.6h0.7l-0.5,0.4l0.2,0.6
	l-0.5-0.4L11,3.9l0.2-0.6l-0.5-0.4h0.7L11.5,2.2z M9,4.1l0.2,0.6h0.7L9.3,5.1l0.2,0.6L9,5.4L8.4,5.8l0.2-0.6L8.1,4.7h0.7L9,4.1z
	 M14.1,4.1l0.2,0.6H15l-0.5,0.4l0.2,0.6l-0.5-0.4l-0.5,0.4l0.2-0.6l-0.5-0.4h0.7L14.1,4.1z M10,6.9l0.2,0.6h0.7L10.3,8l0.2,0.6
	L10,8.2L9.4,8.6L9.6,8L9.1,7.6h0.7L10,6.9z M13.1,6.9l0.2,0.6H14L13.5,8l0.2,0.6l-0.5-0.4l-0.5,0.4V8l-0.5-0.4h0.7L13.1,6.9z"/>
<path style="fill-rule:evenodd;clip-rule:evenodd;fill:#FE4500;" d="M0,12.4h24C23.8,18.9,18.5,24,12,24S0.2,18.9,0,12.4z"/>
</svg>
