<svg xmlns="http://www.w3.org/2000/svg" width="16" height="13"><path d="M14.36 3.24l.01.427c0 4.337-3.3 9.334-9.334 9.334A9.27 9.27 0 0 1 0 11.527a6.79 6.79 0 0 0 .792.041 6.57 6.57 0 0 0 4.073-1.402c-1.442-.03-2.65-.975-3.067-2.275.203.03.406.05.62.05a3.47 3.47 0 0 0 .863-.112 3.28 3.28 0 0 1-2.63-3.22v-.04c.437.244.945.396 1.483.416A3.28 3.28 0 0 1 .67 2.255c0-.61.162-1.168.447-1.655C2.732 2.6 5.16 3.9 7.88 4.032c-.05-.244-.08-.498-.08-.752A3.28 3.28 0 0 1 11.08 0c.945 0 1.798.396 2.397 1.036a6.46 6.46 0 0 0 2.082-.792 3.27 3.27 0 0 1-1.442 1.808c.66-.07 1.3-.254 1.89-.508a7.05 7.05 0 0 1-1.645 1.696z" fill="#919eab" fill-rule="nonzero"/></svg>