<svg id="Layer_1" xmlns="http://www.w3.org/2000/svg" width="537.813" height="74.901" viewBox="0 0 537.813 74.901">
  <path id="Path_1" data-name="Path 1" d="M207,25.649h4.639L218.324,4.5h2.183V37.246c0,26.331-.682,33.835-4.912,33.835v3.411H237.97V71.081c-4.093,0-4.912-7.5-4.912-33.835V4.5h2.183l6.822,21.147h4.5V0H207Z" transform="translate(75.413)"/>
  <path id="Path_2" data-name="Path 2" d="M262.231,15.6c-3.547,0-7.094,3.82-9.141,11.6V15.6H237.4v4.366c3.138,0,3.684,6.276,3.684,22.784,0,17.6-.682,22.784-3.684,22.784v3.411h19.51V65.534c-3.138,0-3.684-4.639-3.684-21.693,0-14.052,2.865-18.145,4.912-18.145,1.228,0,1.91.819,1.91,2.319a4.775,4.775,0,0,1-2.183,4.093,4.807,4.807,0,0,0,5.048,3.82c3.684,0,7.094-3.957,7.094-10.232,0-5.457-2.456-10.1-7.777-10.1" transform="translate(86.488 5.683)"/>
  <path id="Path_3" data-name="Path 3" d="M282.119,50.526c0,8.459-1.774,11.187-4.093,11.187-1.91,0-3.138-1.637-3.138-6.958,0-8.868,3.138-11.46,7.231-14.462Zm15.144,16.1v-3c-1.91,0-2.729-2.592-2.729-15.144V32.79c0-10.505-3.411-17.19-15.69-17.19-9.687,0-15.826,4.912-15.826,12.825,0,5.867,2.865,8.868,7.231,8.868,4.639,0,7.777-4.366,6.549-9.277-1.364-.273-2.865-1.637-2.865-4.229,0-2.865,1.774-4.229,3.957-4.229,3.138,0,4.366,2.046,4.366,7.64v6.276c0,6.549-20.055,6.139-20.055,23.739,0,8.049,4.5,11.6,9.959,11.6a11.427,11.427,0,0,0,10.505-6.549c.955,4.775,3.684,6.549,7.777,6.549a9.33,9.33,0,0,0,6.822-2.183" transform="translate(95.523 5.683)"/>
  <path id="Path_4" data-name="Path 4" d="M307.411,18.911c4.911,1.091,4.093,9.823-1.091,31.516-6-23.739-6.958-30.7-3.547-31.516V15.5H284.9v3.411c2.183.546,3.138,3.957,13.916,50.07h7.231c9.414-40.247,12.006-49.525,14.189-50.07V15.5H307.411Z" transform="translate(103.793 5.647)"/>
  <path id="Path_5" data-name="Path 5" d="M352.073,74.492V71.081c-3.138,0-3.684-4.366-3.684-33.153,0-12.688.136-28.923.682-37.928H332.7V3.411c3.138,0,3.684,6.139,3.684,34.517,0,28.787-.546,33.153-3.684,33.153v3.411Z" transform="translate(121.207)"/>
  <path id="Path_6" data-name="Path 6" d="M395.131,15.6c-3.547,0-7.094,3.82-9.141,11.6V16.419H370.3v3.411c3.138,0,3.684,6.276,3.684,22.784,0,17.6-.682,22.784-3.684,22.784v3.411h19.51V65.4c-3.138,0-3.684-4.639-3.684-21.693,0-14.052,2.865-18.145,4.911-18.145,1.228,0,1.91.819,1.91,2.319a4.775,4.775,0,0,1-2.183,4.093,4.807,4.807,0,0,0,5.048,3.82c3.684,0,7.094-3.957,7.094-10.232,0-5.321-2.456-9.959-7.777-9.959" transform="translate(134.905 5.683)"/>
  <path id="Path_7" data-name="Path 7" d="M25.922,53.618c0,12.006-1.637,16.645-6.958,16.645H16.508V37.519h2.456c5.321,0,6.958,4.093,6.958,16.1m-.955-34.79c0,10.505-1.364,14.189-6.276,14.189H16.508V4.366h2.183C23.6,4.5,24.967,8.6,24.967,18.828m14.052-.682C39.019,7.64,34.108,0,19.646,0H0V3.411c3.138,0,3.684,7.64,3.684,33.971S3.138,71.217,0,71.217v3.411H20.055c13.916,0,20.055-8.6,20.055-20.055,0-9.414-3.957-16.781-12.825-19.237,8.186-1.774,11.733-8.322,11.733-17.19"/>
  <path id="Path_8" data-name="Path 8" d="M67.036,42.2c0-9.277.136-19.1.682-26.6H51.347v3.411c3.138,0,3.684,6.549,3.684,23.193v2.183c0,15.417-2.456,16.781-5.048,16.781-2.729,0-3.82-2.183-3.82-12.688,0-13.234.136-25.24.682-32.744H30.2v3.411c3.138,0,3.684,4.093,3.684,33.153,0,13.78,3.684,16.917,10.232,16.917,4.912,0,8.732-1.637,10.778-7.231v7.231H70.857V65.534c-3.274-.136-3.82-6.549-3.82-23.33" transform="translate(11.002 5.683)"/>
  <path id="Path_9" data-name="Path 9" d="M91.431,0C86.792,0,84.2,3.547,84.2,8.868s2.592,8.868,7.231,8.868c4.5,0,7.367-3.547,7.367-8.868S95.933,0,91.431,0" transform="translate(30.675)"/>
  <path id="Path_10" data-name="Path 10" d="M102.373,68.945V65.534c-3.138,0-3.684-5.184-3.684-23.193,0-8.732.136-18.828.546-26.741H83v3.411c3.138,0,3.684,6.412,3.684,23.193C86.684,60.213,86,65.4,83,65.4v3.411h19.373Z" transform="translate(30.238 5.683)"/>
  <path id="Path_11" data-name="Path 11" d="M135.436,32.927c0-12.961-3.274-17.327-10.369-17.327-4.912,0-8.6,2.456-10.642,8.049V15.6H98.6v3.411c3.138,0,3.684,7.094,3.684,23.6,0,17.736-.682,22.784-3.684,22.784v3.411h19.373V65.4c-3,0-3.684-5.184-3.684-22.784V40.431c0-15.144,2.456-17.19,4.912-17.19,3,0,3.957,2.865,3.957,13.916,0,24.012-.682,28.241-3.547,28.241v3.411h19.373V65.4c-3.138.136-3.547-3.957-3.547-32.471" transform="translate(35.921 5.683)"/>
  <path id="Path_12" data-name="Path 12" d="M140.734,37.429c.273-12.961,1.228-17.463,4.639-17.463,3.138,0,3.957,4.775,4.093,17.463Zm0,4.5h21.283c0-16.917-5.73-26.331-16.781-26.331-11.46,0-17.736,9.687-17.736,26.6s6.412,26.741,18.555,26.741c9.55,0,13.916-5.594,16.372-17.6h-4.5c-1.637,9.277-5.184,12.279-8.868,12.279-5.457,0-8.322-4.775-8.322-21.693Z" transform="translate(46.45 5.683)"/>
  <path id="Path_13" data-name="Path 13" d="M176.093,17.646c-2.046,0-3.684-2.046-8.868-2.046-6.139,0-12.552,3.82-12.552,13.507,0,15.826,17.463,19.373,17.463,30.833,0,3-1.637,5.048-4.093,5.048-3.82,0-6.276-1.091-9.55-13.507H154.4v17.6h3.82c.546-1.364,1.091-2.046,2.046-2.046,1.91,0,3.82,2.046,9.414,2.046,7.64,0,13.37-5.048,13.37-14.325,0-16.645-17.6-19.373-17.6-30.561,0-2.865,1.637-4.229,3.684-4.229,3.82,0,6.276,4.639,8.322,12.825h3.82V15.6h-3.411c-.409,1.228-1.228,2.046-1.774,2.046" transform="translate(56.25 5.683)"/>
  <path id="Path_14" data-name="Path 14" d="M198.493,17.646c-2.046,0-3.684-2.046-8.868-2.046-6.139,0-12.552,3.82-12.552,13.507,0,15.826,17.463,19.373,17.463,30.833,0,3-1.637,5.048-4.093,5.048-3.82,0-6.276-1.091-9.55-13.507H176.8v17.6h3.82c.546-1.364,1.091-2.046,2.046-2.046,1.91,0,3.82,2.046,9.414,2.046,7.64,0,13.37-5.048,13.37-14.325,0-16.645-17.6-19.373-17.6-30.561,0-2.865,1.637-4.229,3.684-4.229,3.82,0,6.276,4.639,8.322,12.825h3.82V15.6h-3.411c-.273,1.228-1.091,2.046-1.774,2.046" transform="translate(64.411 5.683)"/>
  <path id="Path_15" data-name="Path 15" d="M82.993,17.646c-2.046,0-3.684-2.046-8.868-2.046-6.139,0-12.552,3.82-12.552,13.507,0,15.826,17.463,19.373,17.463,30.833,0,3-1.637,5.048-4.093,5.048-3.82,0-6.276-1.091-9.55-13.507H61.3v17.6h3.684c.546-1.364,1.091-2.046,2.046-2.046,1.91,0,3.82,2.046,9.414,2.046,7.64,0,13.37-5.048,13.37-14.325,0-16.645-17.6-19.373-17.6-30.561,0-2.865,1.637-4.229,3.684-4.229,3.82,0,6.276,4.639,8.322,12.825h3.957V15.6H84.766c-.409,1.228-1.228,2.046-1.774,2.046" transform="translate(22.332 5.683)"/>
  <path id="Path_16" data-name="Path 16" d="M359.234,37.429c.273-12.961,1.228-17.463,4.639-17.463,3.138,0,3.957,4.775,4.093,17.463Zm0,4.5h21.283c0-16.917-5.73-26.331-16.781-26.331C352.276,15.6,346,25.287,346,42.2s6.412,26.741,18.555,26.741c9.55,0,13.916-5.594,16.372-17.6h-4.5c-1.637,9.277-5.184,12.279-8.868,12.279-5.457,0-8.322-4.775-8.322-21.693Z" transform="translate(126.053 5.683)"/>
  <path id="Path_17" data-name="Path 17" d="M321.434,37.429c.273-12.961,1.228-17.463,4.639-17.463,3.138,0,3.956,4.775,4.093,17.463Zm0,4.5h21.283c0-16.917-5.73-26.331-16.781-26.331-11.46,0-17.736,9.687-17.736,26.6s6.412,26.741,18.555,26.741c9.55,0,13.916-5.594,16.372-17.6h-4.5c-1.637,9.277-5.184,12.279-8.868,12.279-5.457,0-8.322-4.775-8.322-21.693Z" transform="translate(112.282 5.683)"/>
</svg>
