<svg xmlns="http://www.w3.org/2000/svg" width="14" height="14"><path d="M7.003 3.41c1.987 0 3.59 1.603 3.59 3.59S9 10.59 7.003 10.59 3.414 8.987 3.414 7s1.603-3.59 3.59-3.59zm0 5.923A2.34 2.34 0 0 0 9.337 7c0-1.287-1.047-2.334-2.334-2.334S4.67 5.713 4.67 7a2.34 2.34 0 0 0 2.334 2.334zm4.573-6.07c0 .465-.375.837-.837.837s-.837-.375-.837-.837.375-.837.837-.837.837.375.837.837zm2.377.85c.066 1.156.066 4.617 0 5.773-.056 1.122-.312 2.115-1.13 2.933S11.01 13.898 9.9 13.95c-1.156.066-4.62.066-5.776 0-1.12-.056-2.112-.312-2.933-1.13S.102 11.008.05 9.887C-.016 8.73-.016 5.266.05 4.1.105 2.99.358 1.995 1.18 1.177S2.995.102 4.113.05C5.27-.016 8.734-.016 9.9.05c1.122.056 2.115.312 2.933 1.13s1.078 1.812 1.13 2.933zm-1.493 7.013c.366-.918.28-3.108.28-4.127s.084-3.205-.28-4.127a2.36 2.36 0 0 0-1.331-1.331c-.918-.362-3.108-.28-4.127-.28s-3.205-.084-4.127.28a2.36 2.36 0 0 0-1.331 1.331c-.362.918-.28 3.108-.28 4.127s-.084 3.205.28 4.127a2.36 2.36 0 0 0 1.331 1.331c.918.362 3.108.28 4.127.28s3.205.084 4.127-.28a2.36 2.36 0 0 0 1.331-1.331z" fill="#919eab" fill-rule="nonzero"/></svg>