<svg width="54" height="18" viewBox="0 0 54 18" fill="none" xmlns="http://www.w3.org/2000/svg">
<rect width="54" height="18" fill="#096FFA"/>
<path d="M11.8455 5.965C12.2478 5.965 12.5991 6.04717 12.8995 6.2115C13.2055 6.37583 13.4378 6.60533 13.5965 6.9C13.7608 7.19467 13.843 7.53183 13.843 7.9115C13.843 8.29117 13.7608 8.62833 13.5965 8.923C13.4378 9.21767 13.2055 9.44717 12.8995 9.6115C12.5991 9.77017 12.2478 9.8495 11.8455 9.8495H10.171V12H8.79397V5.965H11.8455ZM10.1625 7.104V8.7105H11.582C11.8596 8.7105 12.0778 8.6425 12.2365 8.5065C12.3951 8.36483 12.4745 8.1665 12.4745 7.9115C12.4745 7.6565 12.3951 7.45817 12.2365 7.3165C12.0778 7.17483 11.8596 7.104 11.582 7.104H10.1625ZM17.1546 7.5035C17.3303 7.5035 17.5711 7.5545 17.8771 7.6565L17.6391 8.7785C17.3841 8.71617 17.1915 8.685 17.0611 8.685C16.7778 8.685 16.554 8.7955 16.3896 9.0165C16.2253 9.23183 16.1431 9.52933 16.1431 9.909V12H14.8681V7.58H16.0496V8.209C16.2876 7.73867 16.656 7.5035 17.1546 7.5035ZM20.7065 11.065C20.9445 11.065 21.1542 11.0225 21.3355 10.9375C21.5169 10.8525 21.7294 10.708 21.973 10.504L22.67 11.303C22.3527 11.609 22.0325 11.8272 21.7095 11.9575C21.3922 12.0822 21.0465 12.1445 20.6725 12.1445C20.1909 12.1445 19.7715 12.0482 19.4145 11.8555C19.0575 11.6628 18.7827 11.3908 18.59 11.0395C18.3974 10.6882 18.301 10.2773 18.301 9.807C18.301 9.35367 18.3889 8.9485 18.5645 8.5915C18.7459 8.22883 19.0065 7.9455 19.3465 7.7415C19.6922 7.53183 20.1002 7.427 20.5705 7.427C21.2505 7.427 21.769 7.62533 22.126 8.022C22.4887 8.41867 22.67 8.96833 22.67 9.671C22.67 9.86933 22.6644 10.0308 22.653 10.1555H19.5335C19.5959 10.4388 19.7262 10.6627 19.9245 10.827C20.1229 10.9857 20.3835 11.065 20.7065 11.065ZM20.545 8.4215C20.2787 8.4215 20.0634 8.498 19.899 8.651C19.7347 8.804 19.6214 9.008 19.559 9.263H21.4545C21.4262 8.99667 21.3355 8.78983 21.1825 8.6425C21.0295 8.49517 20.817 8.4215 20.545 8.4215ZM28.658 7.427C29.1283 7.427 29.491 7.56017 29.746 7.8265C30.001 8.08717 30.1285 8.44983 30.1285 8.9145V12H28.8535V9.28C28.8535 8.78133 28.6467 8.532 28.233 8.532C28.012 8.532 27.842 8.60283 27.723 8.7445C27.6097 8.8805 27.553 9.06467 27.553 9.297V12H26.278V9.28C26.278 8.78133 26.0712 8.532 25.6575 8.532C25.4308 8.532 25.2608 8.6085 25.1475 8.7615C25.0342 8.90883 24.9775 9.10433 24.9775 9.348V12H23.7025V7.58H24.884V8.0645C25.0087 7.86617 25.173 7.71033 25.377 7.597C25.5867 7.48367 25.8417 7.427 26.142 7.427C26.4197 7.427 26.6633 7.48367 26.873 7.597C27.0827 7.70467 27.2442 7.8605 27.3575 8.0645C27.6635 7.6395 28.097 7.427 28.658 7.427ZM32.5739 7.58V12H31.2989V7.58H32.5739ZM32.5739 5.965V7.0275H31.2989V5.965H32.5739ZM37.7436 7.58V12H36.5791V11.5325C36.3184 11.9405 35.8906 12.1445 35.2956 12.1445C34.7686 12.1445 34.3776 12.0198 34.1226 11.7705C33.8676 11.5155 33.7401 11.1585 33.7401 10.6995V7.58H35.0151V10.3595C35.0151 10.8072 35.2333 11.031 35.6696 11.031C35.9246 11.031 36.1201 10.963 36.2561 10.827C36.3978 10.6853 36.4686 10.4728 36.4686 10.1895V7.58H37.7436ZM43.8851 7.427C44.3555 7.427 44.7181 7.56017 44.9731 7.8265C45.2281 8.08717 45.3556 8.44983 45.3556 8.9145V12H44.0806V9.28C44.0806 8.78133 43.8738 8.532 43.4601 8.532C43.2391 8.532 43.0691 8.60283 42.9501 8.7445C42.8368 8.8805 42.7801 9.06467 42.7801 9.297V12H41.5051V9.28C41.5051 8.78133 41.2983 8.532 40.8846 8.532C40.658 8.532 40.488 8.6085 40.3746 8.7615C40.2613 8.90883 40.2046 9.10433 40.2046 9.348V12H38.9296V7.58H40.1111V8.0645C40.2358 7.86617 40.4001 7.71033 40.6041 7.597C40.8138 7.48367 41.0688 7.427 41.3691 7.427C41.6468 7.427 41.8905 7.48367 42.1001 7.597C42.3098 7.70467 42.4713 7.8605 42.5846 8.0645C42.8906 7.6395 43.3241 7.427 43.8851 7.427Z" fill="white"/>
</svg>