<?xml version="1.0" encoding="utf-8"?>
<!-- Generator: Adobe Illustrator 21.1.0, SVG Export Plug-In . SVG Version: 6.00 Build 0)  -->
<svg version="1.1" id="Layer_1" xmlns="http://www.w3.org/2000/svg" xmlns:xlink="http://www.w3.org/1999/xlink" x="0px" y="0px"
	 viewBox="0 0 21.7 28.9" style="enable-background:new 0 0 21.7 28.9;" xml:space="preserve">
<style type="text/css">
	.st0{fill:#FFFFFF;}
	.st1{fill-rule:evenodd;clip-rule:evenodd;fill:#FFFFFF;}
</style>
<path class="st0" d="M20.2,8c-0.1-1-0.9-1.8-1.9-1.8l-2.5,0V4.9c0-2.7-2.2-4.9-4.9-4.9S5.9,2.2,5.9,4.9v1.1L3.4,6c0,0,0,0,0,0
	c-1,0-1.9,0.8-1.9,1.8L0,26.6c0,0.5,0.1,1.1,0.5,1.5c0.4,0.4,0.9,0.6,1.4,0.6l17.8,0.2c0,0,0,0,0,0c0.5,0,1.1-0.2,1.4-0.6
	c0.4-0.4,0.6-0.9,0.5-1.5L20.2,8z M7.3,4.9c0-2,1.6-3.5,3.5-3.5c2,0,3.5,1.6,3.5,3.5v1.2L7.3,6.1V4.9z M20.2,27.3
	c-0.1,0.1-0.2,0.2-0.4,0.2L1.9,27.3c-0.2,0-0.3-0.1-0.4-0.2c-0.1-0.1-0.2-0.3-0.1-0.4L2.9,7.9c0-0.3,0.3-0.5,0.5-0.5c0,0,0,0,0,0
	l2.5,0v0.9C5.5,8.6,5.2,9.1,5.2,9.6c0,0.8,0.6,1.4,1.4,1.4s1.4-0.6,1.4-1.4c0-0.5-0.3-1-0.7-1.3V7.5l7.1,0.1v0.8
	c-0.4,0.2-0.7,0.7-0.7,1.3c0,0.8,0.6,1.4,1.4,1.4s1.4-0.6,1.4-1.4c0-0.5-0.3-1-0.7-1.3V7.6l2.5,0c0.3,0,0.5,0.2,0.5,0.5l1.5,18.8
	c0,0,0,0,0,0C20.3,27.1,20.3,27.2,20.2,27.3z"/>
<path class="st1" d="M5.6,19.7h4.5v4.5H5.6V19.7z"/>
<path class="st1" d="M11.6,19.7h4.5v4.5h-4.5V19.7z"/>
<path class="st1" d="M11.6,13.7h4.5v4.5h-4.5V13.7z"/>
</svg>
