<svg xmlns="http://www.w3.org/2000/svg" width="23" height="20" viewBox="0 0 23 20">
  <path id="Shape_2_copy" data-name="Shape 2 copy" d="M5397.617,390.973l-.009,0-3.332.725-.4,5.478v.845h-.063l-.481,6.663a.41.41,0,0,1-.212.386.4.4,0,0,1-.146.056.594.594,0,0,1-.126.017h-15.985a.462.462,0,0,1-.482-.458.5.5,0,0,1,.482-.5h15.543l.122-1.694h-15.875L5375,393.189l18.379-2.459.021-.274v-.008a.5.5,0,0,1,.53-.446.462.462,0,0,1,.427.511v.008l-.013.186,3.055-.665.008,0a.5.5,0,0,1,.579.382A.462.462,0,0,1,5397.617,390.973ZM5390.2,401.54h2.4l.257-3.518H5390.1Zm-11.62-7.865-2.456.329.546,3.065h2.182Zm.349,4.348h-2.09l.626,3.51h1.743Zm4.182-4.954-3.578.479.281,3.521h3.551Zm.315,4.954h-3.535l.28,3.511,3.479,0Zm5.562-5.741-4.923.659.261,4.128h4.793Zm.156,5.741h-4.757l.225,3.514,4.629,0Zm.8-5.869.136,4.915h2.853l.39-5.367Zm-10.064,14.362a1.742,1.742,0,1,1-1.753,1.741A1.75,1.75,0,0,1,5379.872,406.516Zm11.67-1.038a2.262,2.262,0,1,1-2.271,2.261A2.265,2.265,0,0,1,5391.542,405.478Z" transform="translate(-5375.005 -390)" fill="#707070"/>
</svg>
