<?xml version="1.0" encoding="utf-8"?>
<!-- Generator: Adobe Illustrator 19.2.0, SVG Export Plug-In . SVG Version: 6.00 Build 0)  -->
<svg version="1.1" id="Layer_1" xmlns="http://www.w3.org/2000/svg" xmlns:xlink="http://www.w3.org/1999/xlink" x="0px" y="0px"
	 viewBox="0 0 512 512" style="enable-background:new 0 0 512 512;" xml:space="preserve">
<style type="text/css">
	.st0{fill:#004057;}
</style>
<g>
	<g id="XMLID_1085_">
		<path id="XMLID_1167_" class="st0" d="M492.3,439.9L364.6,312.2l-6.9,6.9L347,308.5c54.8-73.5,48.9-177.9-17.8-244.7
			c-73.3-73.3-192-73.3-265.3,0s-73.3,192,0,265.3c66.7,66.7,171.2,72.7,244.7,17.8l10.7,10.7l-6.9,6.9l127.7,127.7
			c14.5,14.5,37.9,14.5,52.4,0C506.7,477.8,506.7,454.4,492.3,439.9z M288.4,288.4c-50.8,50.8-133.1,50.8-183.8,0
			c-50.8-50.8-50.8-133.1,0-183.8c50.8-50.8,133.1-50.8,183.8,0S339.1,237.6,288.4,288.4z"/>
		<path id="XMLID_1550_" class="st0" d="M219.6,188.3c-6.8-3.6-14-6.3-21.1-9.2c-4.1-1.6-8.1-3.6-11.6-6.3
			c-6.9-5.3-5.7-14.2,2.2-17.8c2.2-1,4.6-1.4,7-1.5c9.3-0.6,18.1,0.9,26.5,4.8c4.2,2,5.6,1.3,6.9-3.1c1.4-4.6,2.6-9.3,3.9-13.9
			c0.9-3.1-0.3-5.2-3.3-6.4c-5.4-2.3-10.9-3.9-16.7-4.7c-7.6-1.1-7.6-1.1-7.7-8.7c-0.2-10.7-0.2-10.7-10.9-10.6
			c-1.6,0-3.1,0-4.7,0.1c-5,0.2-5.9,1.1-5.9,6.2c0,2.3,0.1,4.5,0.1,6.8c0.1,6.7,0,6.6-6.4,9.1c-15.5,5.9-24.9,16.6-25.7,33.6
			c-0.7,15,7.3,25.1,19.7,32.3c7.7,4.4,16.1,7,24.2,10.4c3.2,1.3,6.2,2.9,8.9,5c7.9,6.3,6.6,16.9-2.5,21.1
			c-4.9,2.2-10.1,2.8-15.4,2.3c-8.3-0.9-16.2-2.9-23.6-6.7c-4.4-2.2-5.6-1.6-7,3.2c-1.2,4.1-2.3,8.2-3.3,12.3
			c-1.4,5.5-0.9,6.8,4.4,9.3c6.8,3.1,14,4.7,21.3,5.8c5.7,0.8,5.9,1.1,6.1,7c0.1,2.7,0.1,5.4,0.2,8.1c0.1,3.4,1.8,5.3,5.2,5.4
			c4,0,7.9,0,11.9-0.2c3.2-0.1,4.9-1.9,4.9-5.2c0-3.7,0.1-7.4-0.1-11.1c-0.2-3.8,1.4-5.7,5-6.7c8.3-2.4,15.3-7,20.6-13.7
			C247.4,226.6,241.2,199.8,219.6,188.3z"/>
	</g>
</g>
</svg>
