<?xml version="1.0" encoding="utf-8"?>
<!-- Generator: Adobe Illustrator 19.2.0, SVG Export Plug-In . SVG Version: 6.00 Build 0)  -->
<svg version="1.1" id="Layer_1" xmlns="http://www.w3.org/2000/svg" xmlns:xlink="http://www.w3.org/1999/xlink" x="0px" y="0px"
	 viewBox="0 0 512 512" style="enable-background:new 0 0 512 512;" xml:space="preserve">
<style type="text/css">
	.st0{fill:#004057;}
</style>
<g>
	<path class="st0" d="M164.5,351.8c9-19.3,39.2-76.3,102.3-134.2l27.8,34.6c2.5,3.1,6.5,4.5,10.3,3.5c3.8-0.9,6.8-4,7.6-7.8
		l22.9-107.5c0.6-3-0.1-6.2-2.1-8.5c-1.9-2.4-4.9-3.8-7.9-3.8l-109.3,0c-3.9,0-7.5,2.3-9.2,5.8c-1.7,3.5-1.2,7.8,1.3,10.8l31.5,39.2
		C166.4,250.4,133.3,315.7,124,336.4c-1.4-0.1-2.7-0.4-4-0.4c-39.8,0-72,32.3-72,72c0,39.8,32.3,72,72,72c39.8,0,72-32.2,72-72
		C192,385.1,181.1,365,164.5,351.8z M120,440c-17.6,0-32-14.4-32-32s14.4-32,32-32c17.7,0,32,14.4,32,32S137.7,440,120,440z M424,32
		c-39.8,0-72,32.3-72,72c0,39.8,32.3,72,72,72c39.8,0,72-32.2,72-72C496,64.3,463.8,32,424,32z M424,136c-17.6,0-32-14.4-32-32
		s14.4-32,32-32c17.7,0,32,14.4,32,32S441.7,136,424,136z M365.5,334.4L331.9,368l33.6,33.6c3.4,3.4,3.4,8.9,0,12.3l-15.6,15.6
		c-3.4,3.4-8.9,3.4-12.3,0L304,395.9l-33.6,33.6c-1.6,1.6-3.8,2.5-6.2,2.5c-2.3,0-4.5-0.9-6.1-2.5l-15.6-15.6
		c-3.4-3.4-3.4-8.9,0-12.3l33.6-33.6l-33.6-33.6c-1.6-1.6-2.5-3.8-2.5-6.1s0.9-4.5,2.5-6.1l15.6-15.6c3.4-3.4,8.9-3.4,12.3,0
		l33.6,33.6l33.6-33.6c3.4-3.4,8.9-3.4,12.3,0l15.6,15.6C368.8,325.5,368.8,331,365.5,334.4z M80,203.9l-33.6,33.6
		c-1.6,1.6-3.8,2.5-6.2,2.5c-2.3,0-4.5-0.9-6.1-2.5l-15.6-15.6c-3.4-3.4-3.4-8.9,0-12.3L52.1,176l-33.6-33.6
		c-1.6-1.6-2.5-3.8-2.5-6.1s0.9-4.5,2.5-6.1l15.6-15.6c3.4-3.4,8.9-3.4,12.3,0L80,148.1l33.6-33.6c3.4-3.4,8.9-3.4,12.3,0l15.6,15.6
		c3.4,3.4,3.4,8.9,0,12.3L107.9,176l33.6,33.6c3.4,3.4,3.4,8.9,0,12.3l-15.6,15.6c-3.4,3.4-8.9,3.4-12.3,0L80,203.9z"/>
</g>
</svg>
