<?xml version="1.0" encoding="utf-8"?>
<!-- Generator: Adobe Illustrator 19.2.0, SVG Export Plug-In . SVG Version: 6.00 Build 0)  -->
<svg version="1.1" id="Layer_1" xmlns="http://www.w3.org/2000/svg" xmlns:xlink="http://www.w3.org/1999/xlink" x="0px" y="0px"
	 viewBox="0 0 256 256" style="enable-background:new 0 0 256 256;" xml:space="preserve">
<style type="text/css">
	.st0{fill:#004057;}
</style>
<g>
	<g>
		<path class="st0" d="M215.6,135.4H256c0,17.3-18.1,31.4-40.4,31.4s-40.4-14-40.4-31.4H215.6L215.6,135.4z M40.4,167.6h40.4
			c0,17.3-18.1,31.3-40.4,31.3S0,184.9,0,167.6H40.4L40.4,167.6z"/>
		<g>
			<path class="st0" d="M77,155.4c2-1,2.7-3.4,1.7-5.4L43.9,82c-0.4-0.7-1-1.3-1.7-1.7c-2-1-4.4-0.2-5.4,1.7L2,150
				c-1,2-0.2,4.4,1.7,5.4c2,1,4.4,0.2,5.4-1.7l31.3-61.1l31.3,61.1C72.7,155.6,75.1,156.4,77,155.4z"/>
			<path class="st0" d="M254,117.9l-34.8-68.1c-0.4-0.7-1-1.3-1.7-1.7c-2-1-4.4-0.2-5.4,1.7l-34.8,68.1c-1,2-0.2,4.4,1.7,5.4
				c2,1,4.4,0.2,5.4-1.7l31.3-61.1l31.3,61.1c1,2,3.4,2.7,5.4,1.7C254.2,122.3,255,119.9,254,117.9z"/>
			<path class="st0" d="M186.1,229.6l-21-1.7c-7-0.6-12.3-6.5-13-13.5L137.3,64.7l-19,3.3l-14.4,146.3c-0.7,7-6,12.9-13,13.5
				l-21,1.7c-9.7,0.8-16.7,9.7-16.7,19.5v7h149.6v-7C202.8,239.3,195.8,230.4,186.1,229.6z"/>
			<path class="st0" d="M219.1,36.6c-1-4.9-3.9-7.2-10.1-7.6l-28.9-1.8c-11.1-0.7-21.9-6.5-27.8-13.8c-7.9-9.7-20.3-15.3-33.5-13
				c-13.1,2.3-22.9,11.9-27,23.6c-3.1,8.8-11.3,18-21.5,22.5L43.9,58.2c-5.7,2.5-7.6,5.6-6.9,10.6L219.1,36.6z M123,19.9
				c5.7-0.5,10.8,3.7,11.3,9.4s-3.7,10.8-9.4,11.3c-5.7,0.5-10.8-3.7-11.3-9.4S117.3,20.4,123,19.9z"/>
		</g>
	</g>
</g>
</svg>
