<?xml version="1.0" ?><!DOCTYPE svg  PUBLIC '-//W3C//DTD SVG 1.1//EN'  'http://www.w3.org/Graphics/SVG/1.1/DTD/svg11.dtd'>
<svg enable-background="new 0 0 65 65" id="Layer_1" version="1.1" viewBox="0 0 65 65" xml:space="preserve" xmlns="http://www.w3.org/2000/svg" xmlns:xlink="http://www.w3.org/1999/xlink">
<style type="text/css">
	.st0{fill:#004057;}
</style>
<g>
<path class="st0" d="M22.2,0.5v64h20.7v-64H22.2L22.2,0.5z M29.8,25.6h5.4v13.8h-2.9V28.2h-2.5V25.6z"/>
<path class="st0" d="M0.5,30.8v32.7c0,0.6,0.5,1,1,1h18.7V29.8H1.5C1,29.8,0.5,30.2,0.5,30.8z M13.1,48.3c-0.4-0.3-1.1-0.5-1.8-0.5   c-0.4,0-1,0.1-1.8,0.4v-2.3l2.5-3.1H7.8v-2.6H16v2.1l-2.7,3.2c1.1,0.2,1.9,0.6,2.5,1.4s0.9,1.6,0.9,2.6c0,1.4-0.5,2.6-1.4,3.4   c-0.9,0.8-2.2,1.2-3.6,1.2c-1.5,0-3-0.5-4.5-1.6L8.3,50c1.3,0.9,2.4,1.4,3.4,1.4c0.6,0,1.1-0.2,1.5-0.5c0.4-0.3,0.6-0.7,0.6-1.3   C13.7,49.1,13.5,48.6,13.1,48.3z"/>
<path class="st0" d="M63.5,19.9H44.8v44.6h18.7c0.6,0,1-0.4,1-1V20.9C64.5,20.4,64.1,19.9,63.5,19.9z M58,49.3h-9.4V47l3.9-4.1   c0.8-0.8,1.3-1.5,1.7-2c0.3-0.5,0.5-1,0.5-1.4c0-0.5-0.1-0.8-0.4-1.2c-0.3-0.3-0.7-0.5-1.1-0.5c-0.8,0-1.6,0.6-2.4,1.9l-2.4-1.5   c0.6-1,1.3-1.8,2-2.3c0.7-0.5,1.7-0.8,2.8-0.8c1.1,0,2.2,0.4,3,1.1c0.9,0.8,1.3,1.8,1.3,3.1c0,0.7-0.2,1.4-0.5,2   c-0.3,0.7-1,1.5-1.9,2.5l-2.4,2.6H58V49.3z"/></g></svg>