<svg xmlns="http://www.w3.org/2000/svg" width="24" height="24" viewBox="0 0 24 24" fill="none"><path fill-rule="evenodd" clip-rule="evenodd" d="M11.9901 0C5.47792 0 0.2236 5.11653 0 11.5715H23.9801C23.7565 5.11653 18.5022 0 11.9901 0ZM9.55731 1.46907C10.0927 1.47058 10.6232 1.5717 11.1216 1.76728C10.0645 1.78039 9.05507 2.20944 8.31203 2.96149C7.56899 3.71354 7.15214 4.72803 7.15176 5.78524C7.15217 6.84423 7.57046 7.86029 8.31575 8.61263C9.06104 9.36498 10.0731 9.79282 11.1321 9.8032C10.6304 10.0001 10.0962 10.1012 9.55731 10.1014C8.41275 10.1012 7.31514 9.64637 6.50591 8.83694C5.69668 8.02752 5.24211 6.9298 5.24218 5.78524C5.24211 4.64068 5.69668 3.54296 6.50591 2.73353C7.31514 1.92411 8.41275 1.46927 9.55731 1.46907V1.46907ZM11.5297 2.24755L11.7536 2.86071L12.4055 2.88582L11.8917 3.28761L12.0696 3.91542L11.5286 3.55129L10.9856 3.91437L11.1655 3.28761L10.6518 2.88372L11.3037 2.85966L11.5297 2.24755ZM8.98496 4.10481L9.20783 4.71797L9.86075 4.74308L9.34699 5.14487L9.52487 5.77268L8.98287 5.40855L8.44086 5.77164L8.61978 5.14487L8.10708 4.74099L8.75895 4.71692L8.98496 4.10481ZM14.0744 4.10481L14.2983 4.71797L14.9512 4.74308L14.4375 5.14487L14.6153 5.77268L14.0733 5.40855L13.5313 5.77164L13.7102 5.14487L13.1975 4.74099L13.8494 4.71692L14.0744 4.10481ZM9.9612 6.92157L10.1841 7.53473L10.837 7.55984L10.3232 7.96163L10.5011 8.59049L9.9591 8.22636L9.4171 8.58944L9.59602 7.96163L9.08331 7.55774L9.73519 7.53473L9.9612 6.92157ZM13.0981 6.92157L13.3221 7.53473L13.975 7.55984L13.4612 7.96163L13.6391 8.59049L13.0971 8.22636L12.5551 8.58944L12.734 7.96163L12.2213 7.55774L12.8732 7.53473L13.0981 6.92157Z" fill="#FF4500"></path><path fill-rule="evenodd" clip-rule="evenodd" d="M0 12.4285H23.9801C23.7556 18.8827 18.5016 24 11.9901 24C5.47851 24 0.224497 18.8827 0 12.4285V12.4285Z" fill="#FF4500"></path></svg>