<svg xmlns="http://www.w3.org/2000/svg" width="36" height="36" viewBox="0 0 36 36" fill="none"><rect opacity="0.8" width="36" height="36" rx="4" fill="#848393"></rect><path fill-rule="evenodd" clip-rule="evenodd" d="M17.75 8C20.3359 8 22.8158 9.02723 24.6443 10.8557C26.4728 12.6842 27.5 15.1641 27.5 17.75C27.5 20.3359 26.4728 22.8158 24.6443 24.6443C22.8158 26.4728 20.3359 27.5 17.75 27.5C15.1641 27.5 12.6842 26.4728 10.8557 24.6443C9.02723 22.8158 8 20.3359 8 17.75C8 15.1641 9.02723 12.6842 10.8557 10.8557C12.6842 9.02723 15.1641 8 17.75 8ZM25.091 14C24.129 12.1295 22.4919 10.6946 20.5115 9.986C21.1775 11.246 21.659 12.596 21.941 14H25.091ZM25.964 18.4925C25.988 18.2457 26 17.9979 26 17.75C25.9985 16.9888 25.891 16.2315 25.6805 15.5H22.1675C22.2155 15.9965 22.25 16.496 22.25 17C22.2469 18.0078 22.1434 19.0127 21.941 20H25.6805C25.823 19.5065 25.9175 19.0025 25.9655 18.4925H25.964ZM20.6615 18.4925L20.6705 18.416C20.7217 17.9457 20.7482 17.4731 20.75 17C20.7399 16.4983 20.7019 15.9975 20.636 15.5H14.864C14.7976 15.9974 14.7595 16.4982 14.75 17C14.7537 18.0099 14.8709 19.0163 15.0995 20H20.4005C20.516 19.502 20.603 18.9995 20.6615 18.4925ZM20.3735 14C20.0201 12.4135 19.3823 10.9042 18.491 9.545C18.245 9.524 17.999 9.5 17.75 9.5C17.5937 9.50076 17.4376 9.50827 17.282 9.5225L17.009 9.545L17 9.56C16.1134 10.9152 15.4787 12.4193 15.1265 14H20.3735ZM13.559 14C13.8467 12.597 14.3347 11.2426 15.008 9.9785C13.019 10.6847 11.3742 12.1229 10.409 14H13.559ZM9.8195 15.5C9.60934 16.2316 9.50181 16.9888 9.5 17.75C9.50181 18.5112 9.60934 19.2684 9.8195 20H13.559C13.3556 19.0129 13.2521 18.0078 13.25 17C13.25 16.496 13.2845 15.9965 13.3325 15.5H9.8195ZM13.9505 21.5H10.4105C10.9775 22.6076 11.7871 23.573 12.7789 24.3243C13.7707 25.0756 14.9193 25.5936 16.139 25.8395C15.179 24.5213 14.4398 23.0556 13.9505 21.5ZM17.75 25.466C18.7092 24.2797 19.4589 22.9385 19.967 21.5H15.533C16.0411 22.9384 16.7909 24.2797 17.75 25.466ZM21.5495 21.5C21.0602 23.0556 20.321 24.5212 19.361 25.8395C20.5807 25.5934 21.7291 25.0754 22.7209 24.324C23.7127 23.5727 24.5223 22.6074 25.0895 21.5H21.5495Z" fill="#F3F3F3"></path></svg>