<svg xmlns="http://www.w3.org/2000/svg" width="24" height="24" viewBox="0 0 24 24" fill="none"><path d="M11.571 0C5.11677 0.224139 0 5.47804 0 11.9895C0 12.8285 0.0851386 13.6465 0.246926 14.4358H11.571V13.3811V12.5231V11.4716V10.6147V9.55899V8.70207V7.64844V6.79153V5.7379V4.88098V3.82736V2.97044V0ZM4.88621 4.76903C5.42382 4.76903 5.92365 4.92793 6.35731 5.19278C6.12542 5.12341 5.88421 5.07664 5.63118 5.07664C4.16484 5.07664 2.97567 6.32431 2.97567 7.8598C2.97567 9.39529 4.16484 10.643 5.63118 10.643C5.86383 10.643 6.08572 10.6024 6.30081 10.5436C5.88002 10.7878 5.40087 10.9338 4.88621 10.9338C3.2649 10.9338 1.94821 9.55368 1.94821 7.85143C1.94821 6.14917 3.2649 4.76903 4.88621 4.76903ZM7.83468 5.41146L8.07638 6.757L8.86633 5.6542L8.51478 6.97463L9.69396 6.33115L8.81821 7.3649L10.1533 7.31154L8.92597 7.85352L10.1522 8.39864L8.81716 8.34109L9.68977 9.37693L8.51164 8.73136L8.86006 10.0528L8.07219 8.9469L7.82736 10.2924L7.58567 8.94585L6.79571 10.0487L7.14727 8.72927L5.96809 9.3717L6.84384 8.33795L5.50876 8.39132L6.73607 7.84933L5.50981 7.30421L6.84489 7.36176L5.97227 6.32592L7.15041 6.97254L6.80199 5.65106L7.5888 6.75595L7.83468 5.41146Z" fill="#FF4500"></path><path d="M12.429 0C14.0482 0.056249 15.5819 0.429837 16.973 1.05993H12.429V0Z" fill="#FF4500"></path><path d="M12.429 1.91675H18.5414C19.0315 2.23447 19.4963 2.58632 19.933 2.97037H12.429V1.91675Z" fill="#FF4500"></path><path d="M12.429 3.82739H20.814C21.1231 4.16124 21.4127 4.51325 21.6824 4.88102H12.429V3.82739Z" fill="#FF4500"></path><path d="M12.429 5.73779H22.2589C22.4659 6.07802 22.6552 6.42971 22.8281 6.79142H12.429V5.73779Z" fill="#FF4500"></path><path d="M12.429 7.64844H23.1943C23.3268 7.9922 23.4438 8.34357 23.5448 8.70206H12.429V7.64844Z" fill="#FF4500"></path><path d="M12.429 9.55908H23.7562C23.8267 9.90542 23.8802 10.258 23.9205 10.6148H12.429V9.55908V9.55908Z" fill="#FF4500"></path><path d="M12.429 11.4717H23.9864C23.9936 11.6434 24 11.816 24 11.9896C24 12.1685 23.994 12.3463 23.9864 12.5232H12.429V11.4717Z" fill="#FF4500"></path><path d="M12.429 13.3811H23.9184C23.8777 13.7375 23.824 14.0897 23.753 14.4357H12.429V13.3811Z" fill="#FF4500"></path><path d="M0.460388 15.2927H23.5396C23.4382 15.6508 23.3219 16.002 23.1891 16.3453H0.810898C0.678094 16.002 0.561805 15.6508 0.460388 15.2927V15.2927Z" fill="#FF4500"></path><path d="M1.17816 17.2021H22.8219C22.6481 17.5645 22.4565 17.9161 22.2485 18.2568H1.75153C1.54353 17.9161 1.35199 17.5645 1.17816 17.2021V17.2021Z" fill="#FF4500"></path><path d="M2.32904 19.1147H21.6709C21.4005 19.4821 21.1092 19.8328 20.7994 20.1663H3.20061C2.89081 19.8328 2.59947 19.4821 2.32904 19.1147V19.1147Z" fill="#FF4500"></path><path d="M4.08368 21.0232H19.9163C19.4767 21.4083 19.0086 21.7608 18.5153 22.0789H5.48467C4.99131 21.7608 4.52328 21.4083 4.08368 21.0232V21.0232Z" fill="#FF4500"></path><path d="M7.06464 22.936H16.9354C15.4315 23.6109 13.7628 23.9897 12 23.9897C10.2373 23.9897 8.56851 23.6109 7.06464 22.936Z" fill="#FF4500"></path></svg>