<svg xmlns="http://www.w3.org/2000/svg" width="14" height="14" viewBox="0 0 14 14" fill="none"><path fill-rule="evenodd" clip-rule="evenodd" d="M6.99992 0.462402C10.6759 0.462402 13.6666 3.45307 13.6666 7.12907C13.6666 10.8051 10.6759 13.7957 6.99992 13.7957C3.32392 13.7957 0.333252 10.8051 0.333252 7.12907C0.333252 3.45307 3.32392 0.462402 6.99992 0.462402ZM6.99992 1.4624C3.87525 1.4624 1.33325 4.0044 1.33325 7.12907C1.33325 10.2537 3.87525 12.7957 6.99992 12.7957C10.1246 12.7957 12.6666 10.2537 12.6666 7.12907C12.6666 4.0044 10.1246 1.4624 6.99992 1.4624ZM6.39165 4.46087L8.71565 6.77487C8.80965 6.86887 8.86232 6.9962 8.86232 7.12887C8.86232 7.2622 8.80965 7.38954 8.71565 7.48354L6.39165 9.79687C6.29432 9.8942 6.16632 9.94287 6.03899 9.94287C5.91099 9.94287 5.78232 9.8942 5.68499 9.79554C5.49032 9.59954 5.49099 9.28354 5.68632 9.08887L7.65432 7.12887L5.68632 5.16954C5.49099 4.97487 5.49032 4.6582 5.68499 4.4622C5.87965 4.26554 6.19565 4.26687 6.39165 4.46087Z" fill="#FF4500"></path></svg>