<svg xmlns="http://www.w3.org/2000/svg" width="20" height="20" viewBox="0 0 20 20" fill="none"><path fill-rule="evenodd" clip-rule="evenodd" d="M9.75 0C12.3359 0 14.8158 1.02723 16.6443 2.85571C18.4728 4.68419 19.5 7.16414 19.5 9.75C19.5 12.3359 18.4728 14.8158 16.6443 16.6443C14.8158 18.4728 12.3359 19.5 9.75 19.5C7.16414 19.5 4.68419 18.4728 2.85571 16.6443C1.02723 14.8158 0 12.3359 0 9.75C0 7.16414 1.02723 4.68419 2.85571 2.85571C4.68419 1.02723 7.16414 0 9.75 0V0ZM17.091 6C16.129 4.12951 14.4919 2.69462 12.5115 1.986C13.1775 3.246 13.659 4.596 13.941 6H17.091ZM17.964 10.4925C17.988 10.2457 18 9.99794 18 9.75C17.9985 8.9888 17.891 8.23152 17.6805 7.5H14.1675C14.2155 7.9965 14.25 8.496 14.25 9C14.2469 10.0078 14.1434 11.0127 13.941 12H17.6805C17.823 11.5065 17.9175 11.0025 17.9655 10.4925H17.964ZM12.6615 10.4925L12.6705 10.416C12.7217 9.94571 12.7482 9.47306 12.75 9C12.7399 8.49827 12.7019 7.99749 12.636 7.5H6.864C6.79758 7.99743 6.75952 8.49824 6.75 9C6.75367 10.0099 6.8709 11.0163 7.0995 12H12.4005C12.516 11.502 12.603 10.9995 12.6615 10.4925V10.4925ZM12.3735 6C12.0201 4.41353 11.3823 2.90417 10.491 1.545C10.245 1.524 9.999 1.5 9.75 1.5C9.59375 1.50076 9.4376 1.50827 9.282 1.5225L9.009 1.545L9 1.56C8.11339 2.91519 7.47871 4.41931 7.1265 6H12.3735ZM5.559 6C5.84672 4.59697 6.33472 3.24261 7.008 1.9785C5.01898 2.6847 3.37419 4.12295 2.409 6H5.559V6ZM1.8195 7.5C1.60934 8.23159 1.50181 8.98882 1.5 9.75C1.50181 10.5112 1.60934 11.2684 1.8195 12H5.559C5.35564 11.0129 5.25212 10.0078 5.25 9C5.25 8.496 5.2845 7.9965 5.3325 7.5H1.8195ZM5.9505 13.5H2.4105C2.97752 14.6076 3.78708 15.573 4.77891 16.3243C5.77073 17.0756 6.91927 17.5936 8.139 17.8395C7.17898 16.5213 6.43982 15.0556 5.9505 13.5ZM9.75 17.466C10.7092 16.2797 11.4589 14.9385 11.967 13.5H7.533C8.04111 14.9384 8.79086 16.2797 9.75 17.466ZM13.5495 13.5C13.0602 15.0556 12.321 16.5212 11.361 17.8395C12.5806 17.5934 13.7291 17.0754 14.7209 16.324C15.7127 15.5727 16.5223 14.6074 17.0895 13.5H13.5495V13.5Z" fill="#FF4500"></path></svg>