<svg xmlns="http://www.w3.org/2000/svg" width="36" height="36" viewBox="0 0 36 36" fill="none"><rect opacity="0.8" width="36" height="36" rx="4" fill="#848393"></rect><path fill-rule="evenodd" clip-rule="evenodd" d="M17.9901 6C11.4779 6 6.2236 11.1165 6 17.5715H29.9801C29.7565 11.1165 24.5022 6 17.9901 6ZM15.5573 7.46907C16.0927 7.47058 16.6232 7.5717 17.1216 7.76728C16.0645 7.78039 15.0551 8.20944 14.312 8.96149C13.569 9.71354 13.1521 10.728 13.1518 11.7852C13.1522 12.8442 13.5705 13.8603 14.3158 14.6126C15.061 15.365 16.0731 15.7928 17.1321 15.8032C16.6304 16.0001 16.0962 16.1012 15.5573 16.1014C14.4127 16.1012 13.3151 15.6464 12.5059 14.8369C11.6967 14.0275 11.2421 12.9298 11.2422 11.7852C11.2421 10.6407 11.6967 9.54296 12.5059 8.73353C13.3151 7.92411 14.4127 7.46927 15.5573 7.46907V7.46907ZM17.5297 8.24755L17.7536 8.86071L18.4055 8.88582L17.8917 9.28761L18.0696 9.91542L17.5286 9.55129L16.9856 9.91437L17.1655 9.28761L16.6518 8.88372L17.3037 8.85966L17.5297 8.24755ZM14.985 10.1048L15.2078 10.718L15.8607 10.7431L15.347 11.1449L15.5249 11.7727L14.9829 11.4086L14.4409 11.7716L14.6198 11.1449L14.1071 10.741L14.7589 10.7169L14.985 10.1048ZM20.0744 10.1048L20.2983 10.718L20.9512 10.7431L20.4375 11.1449L20.6153 11.7727L20.0733 11.4086L19.5313 11.7716L19.7102 11.1449L19.1975 10.741L19.8494 10.7169L20.0744 10.1048ZM15.9612 12.9216L16.1841 13.5347L16.837 13.5598L16.3232 13.9616L16.5011 14.5905L15.9591 14.2264L15.4171 14.5894L15.596 13.9616L15.0833 13.5577L15.7352 13.5347L15.9612 12.9216ZM19.0981 12.9216L19.3221 13.5347L19.975 13.5598L19.4612 13.9616L19.6391 14.5905L19.0971 14.2264L18.5551 14.5894L18.734 13.9616L18.2213 13.5577L18.8732 13.5347L19.0981 12.9216Z" fill="#FF4500"></path><path fill-rule="evenodd" clip-rule="evenodd" d="M6 18.4285H29.9801C29.7556 24.8827 24.5016 30 17.9901 30C11.4785 30 6.2245 24.8827 6 18.4285V18.4285Z" fill="#FF4500"></path></svg>