<svg xmlns="http://www.w3.org/2000/svg" width="25" height="24" viewBox="0 0 25 24" fill="none"><path fill-rule="evenodd" clip-rule="evenodd" d="M4.88601 5.5C2.7914 5.5 1.34156 7.59212 2.07703 9.55337L5.07703 17.5534C5.51612 18.7243 6.63548 19.5 7.88601 19.5H9.61401C10.0421 19.5 10.4549 19.4091 10.8302 19.2425C11.0075 19.4026 11.2424 19.5 11.5 19.5H15C15.5523 19.5 16 19.0523 16 18.5V16H17.75C20.6495 16 23 13.6495 23 10.75C23 7.85051 20.6495 5.5 17.75 5.5H4.88601ZM10.5 7.5H4.88601C4.18781 7.5 3.70453 8.19737 3.94969 8.85112L6.94969 16.8511C7.09605 17.2414 7.46917 17.5 7.88601 17.5H9.61401C9.98932 17.5 10.3292 17.2904 10.5 16.9638V7.5ZM12.5 17.348V17.5H14V15C14 14.4477 14.4477 14 15 14H17.75C19.5449 14 21 12.5449 21 10.75C21 8.95507 19.5449 7.5 17.75 7.5H15.4438C15.6695 8.13335 15.6861 8.85173 15.423 9.55337L12.5 17.348ZM12.614 7.5C13.3122 7.5 13.7955 8.19737 13.5503 8.85112L12.5 11.652V7.5H12.614Z" fill="#848393"></path></svg>