<svg xmlns="http://www.w3.org/2000/svg" width="24" height="24" viewBox="0 0 24 24" fill="none"><path fill-rule="evenodd" clip-rule="evenodd" d="M4.38601 5.5C2.2914 5.5 0.841558 7.59212 1.57703 9.55337L4.57703 17.5534C5.01612 18.7243 6.13548 19.5 7.38601 19.5H9.11401C9.54212 19.5 9.95486 19.4091 10.3302 19.2425C10.5075 19.4026 10.7424 19.5 11 19.5H14.5C15.0523 19.5 15.5 19.0523 15.5 18.5V16H17.25C20.1495 16 22.5 13.6495 22.5 10.75C22.5 7.85051 20.1495 5.5 17.25 5.5H4.38601ZM10 7.5H4.38601C3.68781 7.5 3.20453 8.19737 3.44969 8.85112L6.44969 16.8511C6.59605 17.2414 6.96917 17.5 7.38601 17.5H9.11401C9.48932 17.5 9.82918 17.2904 10 16.9638V7.5ZM12 17.348V17.5H13.5V15C13.5 14.4477 13.9477 14 14.5 14H17.25C19.0449 14 20.5 12.5449 20.5 10.75C20.5 8.95507 19.0449 7.5 17.25 7.5H14.9438C15.1695 8.13335 15.1861 8.85173 14.923 9.55337L12 17.348ZM12.114 7.5C12.8122 7.5 13.2955 8.19737 13.0503 8.85112L12 11.652V7.5H12.114Z" fill="#FF4500"></path></svg>