<svg xmlns="http://www.w3.org/2000/svg" width="44" height="44" viewBox="0 0 44 44" fill="none"><circle cx="22" cy="22" r="22" fill="#2A273B"></circle><path fill-rule="evenodd" clip-rule="evenodd" d="M22 22C23.933 22 25.5 20.433 25.5 18.5C25.5 16.567 23.933 15 22 15C20.067 15 18.5 16.567 18.5 18.5C18.5 20.433 20.067 22 22 22ZM22 20C22.8284 20 23.5 19.3284 23.5 18.5C23.5 17.6716 22.8284 17 22 17C21.1716 17 20.5 17.6716 20.5 18.5C20.5 19.3284 21.1716 20 22 20Z" fill="white"></path><path fill-rule="evenodd" clip-rule="evenodd" d="M17.0471 30.6893C16.3397 30.2851 15.6863 29.7971 15.1006 29.2387C15.0826 29.2215 15.0646 29.2042 15.0467 29.1869C13.168 27.3689 12 24.8209 12 22C12 16.4772 16.4772 12 22 12C27.5228 12 32 16.4772 32 22C32 24.8208 30.832 27.3689 28.9533 29.1869C28.3607 29.7604 27.6973 30.2613 26.9776 30.6751C26.9693 30.6798 26.9611 30.6846 26.9529 30.6893C25.4927 31.5234 23.802 32 22 32C20.198 32 18.5073 31.5234 17.0471 30.6893ZM28.2958 26.9364C29.3634 25.5768 30 23.8628 30 22C30 17.5817 26.4183 14 22 14C17.5817 14 14 17.5817 14 22C14 23.8628 14.6366 25.5768 15.7042 26.9365C16.8404 24.6058 19.2327 23 22 23C24.7673 23 27.1596 24.6058 28.2958 26.9364ZM26.7509 28.4372C26.0947 26.4411 24.2156 25 22 25C19.7844 25 17.9053 26.4411 17.2491 28.4372C18.5776 29.4193 20.221 30 22 30C23.779 30 25.4224 29.4193 26.7509 28.4372Z" fill="white"></path></svg>