<svg xmlns="http://www.w3.org/2000/svg" width="15" height="15"><path d="M7.5 0a7.5 7.5 0 1 0 0 15 7.5 7.5 0 0 0 0-15zm3.44 10.817c-.134.22-.423.3-.643.155-1.76-1.076-3.978-1.32-6.588-.723a.47.47 0 0 1-.56-.352c-.058-.252.1-.502.352-.56 2.857-.653 5.308-.372 7.285.837.22.135.3.423.155.643zm.918-2.042c-.17.275-.53.362-.804.193-2.016-1.24-5.09-1.598-7.474-.874-.31.093-.636-.08-.73-.4s.08-.635.4-.73c2.724-.826 6.1-.426 8.425.997.275.17.362.53.193.804zm.08-2.127C9.52 5.212 5.53 5.08 3.223 5.78a.7.7 0 1 1-.407-1.343c2.65-.804 7.053-.65 9.837 1.003a.7.7 0 0 1-.716 1.207z" fill="#637381" fill-rule="nonzero"/></svg>