<svg xmlns="http://www.w3.org/2000/svg" width="17" height="18" fill="#637381" fill-rule="evenodd"><path d="M10.292 7.846a1.792 1.792 0 0 1-3.583 0 1.792 1.792 0 0 1 3.583 0M8.5 17.555c.833 0 1.238-.476 1.38-1.12s.405-2.524.57-4.38-1.95-1.762-1.95-1.762-2.12-.095-1.952 1.762l.57 4.38c.143.643.548 1.12 1.38 1.12"/><path d="M8.5 3.392c-2.816 0-5.108 2.3-5.108 5.108 0 1.8.925 3.365 2.322 4.278v-1.362a4.02 4.02 0 0 1-1.25-2.915A4.04 4.04 0 0 1 8.5 4.465 4.04 4.04 0 0 1 12.535 8.5c0 1.146-.48 2.18-1.25 2.915v1.362c1.397-.913 2.322-2.5 2.322-4.278 0-2.816-2.3-5.108-5.108-5.108M8.5 1A7.51 7.51 0 0 0 1 8.5c0 3.257 2.088 6.036 4.995 7.07l-.088-1.1A6.51 6.51 0 0 1 8.5 2 6.51 6.51 0 0 1 15 8.5a6.51 6.51 0 0 1-3.907 5.96l-.088 1.1C13.912 14.536 16 11.758 16 8.5A7.51 7.51 0 0 0 8.5 1" stroke="#637381" stroke-width=".3"/></svg>